<svg enable-background="new 0 0 288 360" height="360" viewBox="0 0 288 360" width="288" xmlns="http://www.w3.org/2000/svg" xmlns:xlink="http://www.w3.org/1999/xlink"><linearGradient id="a" gradientUnits="userSpaceOnUse"><stop offset="0" stop-color="#f9b5b1"/><stop offset="1" stop-color="#fff" stop-opacity="0"/></linearGradient><radialGradient id="b" cx="266.9" cy="-19.9" gradientTransform="matrix(1 0 0 -1 -126 145)" r="35.3" xlink:href="#a"/><clipPath id="c"><path d="m74.84 142.39s3.57 13.47 2.44 20.59-3.27 6.43-3.28 8.95c-.02 2.51.6 12.78 9.85 18.57 9.24 5.79 29.39-5.68 29.39-5.68l3.5-36.7-22.42-9.86-19.47 4.14z" height="360" transform="" width="288"/></clipPath><radialGradient id="d" cx="213.4" cy="-20.4" gradientTransform="matrix(1 0 0 -1 -126 145)" r="31.4" xlink:href="#a"/><radialGradient id="e" cx="235.7" cy="-14.4" gradientTransform="matrix(1 0 0 -1 -126 145)" r="21.6" xlink:href="#a"/><g transform="matrix(-1 0 0 1 288 0)"><path d="m128.06 313.2s1.02 18.65.64 19.46c-1.98 4.26-6.62 8.21-8.74 10.51-6.42 6.97-12.19 4.28-15.11 3.48-3.8-1.05-10.87-8.36-8.63-12.22s16.89-15.6 16.89-15.6l2.25-7.88z" fill="#37312c"/><path d="m127.58 313.2c.17 3.14.32 6.28.46 9.43.19 4.19 1.13 8.64-1.22 12.29-4.14 6.45-11.64 13.94-19.77 11.88-5.39-1.37-14.06-8.19-9-13.95 3.21-3.66 7.11-6.79 10.82-9.91 1.38-1.17 4.31-2.64 4.84-4.48.53-1.87 1.07-3.73 1.6-5.6.57-2.01-.41-1.5 1.73-1.12 3.63.64 7.26 1.29 10.89 1.93.61.11.87-.82.26-.93-4.23-.75-8.47-1.5-12.7-2.25-.26-.05-.52.06-.59.34-.68 2.39-1.02 6.77-2.84 8.25-3.68 2.98-7.3 6.06-10.8 9.26-2.43 2.23-6.15 4.91-5.88 8.57.32 4.16 5.05 8.2 8.48 9.9 10.58 5.25 20.67-5.19 25.26-13.9 1.13-2.15.02-7.01-.08-9.32-.14-3.46-.31-6.92-.5-10.38-.03-.62-1-.62-.96 0z"/><path d="m137.93 319.31s-1.54 11.26 0 13.83 7.59 11.72 11.68 13.51c2.84 1.24 17.71 2.25 17.69-11.74-.01-5.51-12.96-13.35-15.24-15.92l-1.38-5.79z" fill="#37312c"/><path d="m137.45 319.31c-.49 3.65-.81 7.36-.62 11.05.2 3.86 3.33 7.16 5.57 10.08 4.62 6.02 8.96 8.59 16.49 6.75 6.81-1.66 11.45-9.97 7.35-16.19-2.41-3.66-6.39-6.37-9.8-9.01-1.08-.84-3.71-2.24-4.06-3.72-.41-1.73-.82-3.46-1.23-5.19-.08-.32-.44-.42-.71-.29-4.25 2.04-8.5 4.07-12.75 6.11-.56.27-.07 1.1.49.83 2.7-1.29 5.4-2.59 8.09-3.88 1.45-.7 2.91-1.39 4.36-2.09.37-.18-.47-.69-.27.17.25 1.05.5 2.1.75 3.15 1.93 8.1 15.98 9.4 15.67 19.1-.34 10.46-13.86 13.82-20.55 7.23-3.16-3.12-7.97-8.4-8.44-13.06-.36-3.62.14-7.45.62-11.05.08-.61-.88-.6-.96 0z"/><path d="m128.86 327.94c-1.65 2.15-3.41 4.22-5.2 6.25-1.8 2.02-3.67 4-5.59 5.91-1.95 1.84-3.99 3.87-6.67 4.79-2.55 1.01-5.57 1.3-8.03.02 2.59.91 5.37.4 7.75-.68 1.19-.57 2.35-1.21 3.34-2.07 1.01-.86 1.98-1.8 2.93-2.75 1.94-1.87 3.81-3.82 5.71-5.75 1.9-1.92 3.79-3.86 5.75-5.74z"/><path d="m137.61 330.26c1.99 2.13 3.99 4.24 6.11 6.2 2.1 1.97 4.31 3.88 6.84 5.13 2.52 1.18 5.48 1.36 8.29 1.03 2.8-.4 5.68-1.26 7.85-3.23-1.92 2.25-4.87 3.38-7.74 3.92-2.91.54-6 .34-8.81-.88-2.72-1.31-4.9-3.36-6.97-5.41-2.02-2.12-3.91-4.35-5.56-6.76z"/><path d="m128.43 297.12c-1.16 8.53 1.56 20.59 1.56 20.59s-14.63-.96-17.16-4.18-2.31-47.92-2.31-47.92l39.41 1.45s-4.02 38.76-1.76 39.4 5.78 4.18 4.17 6.76c-1.61 2.57-15.76 16.4-19.63 6.43-3.86-9.97-6.07-40.8-6.07-40.8" fill="#a5575f" stroke="#000" stroke-miterlimit="10" stroke-width=".5"/><path d="m123.14 268.36s1.53 10.55 3.86 17.93c.11.34-.57-7-.57-7l .55-.74.03 1.3s.73 8.33.75 8.38c.86 2.33 1.74 4.14 2.75 4.8 4.18 2.73 12.94 2.9 16.93 2.2l.16-2.87c-3.59-.09-15.31-.98-19.18-5.33 0 0-1.53-11.98-1.48-18.54l-3.79-.15z" fill="#904b52"/><path d="m115.42 268.03s.36 21.23-2.19 21.22c-.37 0-1.39.04-2.25-.16l-.03-1.3 2.3.56.13-2.98.91-17.36 1.12.02z" fill="#904b52"/><path d="m147.3 303.56c-2.74 1.79-11.01 7.29-9.7 7.39 1.28.1 8.58-2.95 11.18-4.06 0 0-.85-.02-1.2-.71-.29-.58-.29-2.63-.29-2.63z" fill="#904b52"/><path d="m126.88 284.67.13 32.52 2.62.22c-.34-2.38-2.46-12.21-1.44-20.19l-.69-6.39z" fill="#904b52"/><path d="m122.2 270.5 6.7 12.5" fill="none"/><path d="m126.97 278.55c-.33-.68-.67-1.36-1.03-2.03-1.13-2.07-2.32-4.1-3.77-5.99.78 2.25 1.82 4.37 2.92 6.45.58 1.05 1.18 2.09 1.82 3.11.02-.08.06-.16.09-.24-.08-.43-.09-.87-.03-1.3z"/><path d="m133.77 323.4c2.23.26 3.96-.36 5.67-1.16 1.7-.81 3.33-1.85 4.95-2.94 1.62-1.1 3.24-2.26 4.88-3.45 1.63-1.22 3.33-2.33 4.96-3.79-.24 2.3-1.54 4.23-2.85 5.97-1.37 1.72-2.99 3.23-4.84 4.47-1.84 1.24-3.93 2.23-6.24 2.64-1.15.2-2.37.2-3.54-.04-1.16-.28-2.28-.82-3-1.7z"/><path d="m110.51 311.87c1.56 1.45 3.07 2.38 4.7 3.03 1.61.66 3.31 1.08 5.08 1.43 1.77.34 3.6.6 5.48.84 1.89.23 3.81.56 5.86.75-1.69 1.4-3.78 1.91-5.8 2.29-2.05.32-4.17.32-6.27-.09-2.09-.41-4.19-1.23-5.94-2.64-1.73-1.39-3.03-3.46-3.1-5.6z"/><path d="m69.36 208.68s-18.33 2.57-4.5-18.98c0 0 .32 6.43 1.61 7.72s5.14 2.25 6.11-1.93c.32-1.39.64-2.25 0-5.79 0 0 13.97 7.07 4.41 17.05l9.1 48.24s10.65.64 3.56 15.44c0 0-1.63-5.15-3.56-6.11-1.93-.97-2.57 0-2.9 1.93-.32 1.93 1.65 8.05 1.65 8.05s-14.61-1.78-6.24-19.14z" fill="#f2633e"/><path d="m69.36 208.19c-2.67.35-5.8.01-7.83-1.89-2.97-2.79-.62-8.12.73-11.06.41-.85.85-1.69 1.32-2.51.34-.63.78-3.27.83-2.47.1 1.47.29 2.94.54 4.39.39 2.28 1.13 3.52 3.33 4.23 1.62.52 3.77-.41 4.34-2.06.41-1.16.68-2.22.8-3.43.07-.71-.03-1.58-.13-2.27-.11-.71-1.48-1.31-.49-.76 2.88 1.08 5.04 2.58 6.28 6.16 1.43 2.61.66 5.41-.75 7.81.43-.73-1.95 1.72-1.8 2.54.17.89.34 1.78.5 2.67 1.02 5.44 2.05 10.88 3.08 16.32 1.84 9.75 3.68 19.5 5.52 29.26.04.22.26.34.47.35 6.32.49 5.84 7.5 4.32 11.96-1.15 3.35-.05 2.99-1.19.52-.6-1.29-1.23-2.44-2.15-3.51-1-1.17-2.52-1.21-3.61-.33-1.42 1.15-.59 4.12-.24 5.5.36 1.42.88 2.8 1.39 4.17.21.56 1.06.02.03-.19-5.95-1.21-8.77-6.07-7.8-11.96.35-2.1 2.57-4.93 2.19-6.85-.24-1.19-.47-2.38-.71-3.58-1.04-5.23-2.08-10.46-3.12-15.68-1.79-9-3.58-17.99-5.36-26.99-.12-.61-1.05-.35-.93.26 2.71 13.63 5.42 27.26 8.13 40.9.36 1.83.73 3.65 1.09 5.48.24 1.19-1.9 4.83-2.21 6.21-.44 1.92-.39 3.9.03 5.82.9 4.23 5.29 6.98 9.35 7.48.3.04.57-.34.47-.61-.61-1.54-1.13-3.11-1.6-4.71-.24-.82-.4-1.65-.49-2.49 2.29-1.35 3.72-1.13 4.3.64.51.95.89 2.02 1.23 3.05.12.36.7.52.88.11 2.48-5.45 4.72-15.28-3.94-16.16.72.07.3-.33.09-1.48-.31-1.62-.61-3.23-.92-4.85-1.01-5.35-2.02-10.69-3.02-16.04-1.58-8.39-3.16-16.77-4.74-25.15-.14-.75 2.41-3.27 2.75-4.35.6-1.91.8-3.92-.03-5.82-1.43-3.3-3.5-5.99-7.43-7.54-.4-.21-.77.13-.71.55.28 1.79.49 3.14.16 4.87-.76 3.9-5.07 4.45-6.19.63-.52-1.8-.64-3.76-.74-5.63-.03-.48-.64-.66-.9-.24-2.75 4.4-8.32 13.07-3.24 17.86 2.02 1.9 5.54 2.19 8.16 1.85.61-.08.61-1.05 0-.97z"/><path d="m139.68 268.03-5.88-65.62-10.83.3-15.66 64.07z" fill="#fffbd0"/><path d="m107.31 267.74c10.79.42 21.58.84 32.37 1.25.49.02 1.01-.46.97-.97-1.96-21.87-3.92-43.75-5.88-65.62-.05-.51-.4-.98-.97-.97-3.61.1-7.22.2-10.84.3-.42.01-.83.28-.93.71-5.22 21.35-10.44 42.71-15.65 64.06-.3 1.21 1.56 1.72 1.86.51 3.18-12.99 6.35-25.99 9.52-38.98 1.78-7.28 3.56-14.57 5.34-21.85.19-.8.39-1.59.58-2.38.36-1.47-.35-.15-.31-.15 3.47-.1 6.95-.19 10.42-.29-.32-.32-.64-.64-.97-.96 1.96 21.87 3.92 43.75 5.88 65.62.32-.32.64-.64.97-.97-10.79-.42-21.58-.83-32.37-1.25-1.24-.05-1.24 1.88 0 1.93z"/><path d="m133.8 202.41 18.95-4.31c22.91 34.04 20.82 45.98 20.82 45.98l-12.54 1.93 8.04 44.99c-32.65 3.39-40.2-4.18-40.2-4.18-5.01-23.48 1.3-71.88 4.94-84.41z" fill="#fff"/><path d="m114.71 202.33-13.18 23.4h-17.69s4.49 6.48 2.25 12.86l15.76-.32s-8 22.68-7.71 45.35l18.68 4.18c1.15-24.26 3.12-69.92 11.37-85.38l-9.49-.09z" fill="#fff"/><path d="m121.61 203.87c-1.83 3.43-3.59 6.9-5.3 10.38-.86 1.74-1.71 3.49-2.44 5.27-.34.9-.75 1.77-.74 2.68-.04.95-.04 1.93-.05 2.9-.04 7.76.11 15.54.19 23.31v.13l-.06.11-8.01 14.58.03-.32 3.84 12.75 3.67 12.57-4.17-12.42-4.13-12.66-.05-.16.09-.16 7.89-14.65-.06.23c-.08-3.89-.08-7.78-.1-11.66-.01-3.89-.02-7.77.05-11.67.03-.98.05-1.95.12-2.93.03-1.07.51-2 .87-2.89.8-1.79 1.69-3.52 2.59-5.25 1.84-3.43 3.79-6.8 5.76-10.15z"/><path d="m104.51 232.16c-1.86 4-3.31 8.17-4.57 12.39-1.24 4.22-2.27 8.51-3.11 12.82-1.66 8.64-2.43 17.45-2.31 26.23l-.29-.36 18.7 4.1-.55.43c.22-7.22.69-14.41 1.19-21.61.52-7.19 1.13-14.38 1.89-21.55.77-7.17 1.66-14.33 2.88-21.45.62-3.55 1.36-7.09 2.25-10.59.92-3.48 1.93-6.98 3.61-10.18-1.61 3.23-2.53 6.74-3.37 10.24-.82 3.51-1.44 7.05-2.01 10.61-1.16 7.11-1.99 14.27-2.7 21.43-1.41 14.34-2.21 28.73-2.84 43.12l-.02.55-.53-.12-18.67-4.26-.29-.07v-.3c-.05-8.84.8-17.69 2.54-26.35.86-4.33 1.97-8.61 3.33-12.81 1.37-4.2 2.91-8.34 4.87-12.3z"/><path d="m135.09 202.52c1.16 7.38 2.24 14.78 3.25 22.18l.01.08-.02.09-5.61 19.63v-.25l4.68 18.04.03.11-.04.11c-2.79 8.12-5.63 16.23-8.53 24.32 2.54-8.21 5.15-16.4 7.81-24.56l-.01.22-4.84-17.99-.03-.13.04-.12 5.71-19.6-.01.17c-.88-7.42-1.7-14.85-2.43-22.29z"/><path d="m80.69 224.08s-7.64-.14-9.86 3.57c-2.06 3.44 0 10.76 1.43 12.55 4.01 5 8.68 1.67 11.1.29s7.95-10.3-2.67-16.41z" fill="#fee9da"/><path d="m80.69 223.11c-4.33-.05-9.74 1.01-11.33 5.56-1.82 5.2.91 13.49 6.51 15.02 4.33 1.18 9.43-2.65 11.14-6.39 2.67-5.83-.87-11.02-5.83-14.06-1.07-.65-2.03 1.02-.98 1.67 4.36 2.67 7.23 6.85 4.91 11.9-1.38 3-4.99 5.02-8.22 5.07-5.59.09-7.07-10.09-5.23-13.75 1.38-2.74 6.34-3.12 9.03-3.1 1.25.02 1.24-1.92 0-1.93z"/><path d="m133.8 201.41s20.38-3.3 24.93 4l-3.91-8.3-21.02 4.31z" fill="#cccadb"/><path d="m101.75 238.48.76-1.91-15.33.33c-.35.68-.57 1.35-.57 1.35s12.72.41 15.14.23z" fill="#cccadb"/><path d="m114.71 202.33c-2.11 3.95-4.17 7.93-6.33 11.84-2.14 3.93-4.28 7.86-6.47 11.77l-.12.22h-.26c-5.9.03-11.79.06-17.69.02l.4-.66c1.04 2.04 1.86 4.16 2.41 6.38.26 1.11.45 2.25.45 3.41.01 1.15-.17 2.35-.7 3.43l-.31-.49c5.14.06 10.27.19 15.4.34-5.14.15-10.27 1.29-15.4 1.34l-.53-.99.22-.5c.87-1.94.55-4.24.05-6.35-.54-2.13-1.38-4.21-2.39-6.15l-.34-.66.73-.01c5.9-.05 11.79-.02 17.69.02l-.38.22c2.2-3.9 4.45-7.77 6.71-11.63 2.23-3.89 4.56-7.71 6.85-11.56z"/><path d="m117.23 204.75-4.69 1.66.96-2.05z" fill="#cccadb"/><path d="m172.98 238.78c-1.05 2.15-3.82 5.36-11.12 7.27 3.8-.32 7.59-.83 11.34-1.44.5-1.82.19-3.88-.22-5.83z" fill="#cccadb"/><path d="m171.77 232.01c-1.59-4.15-3.51-8.14-5.55-12.07-4.07-7.86-8.64-15.44-13.47-22.83 4.58 7.55 8.9 15.26 12.87 23.15 1.95 3.95 3.8 7.96 5.37 12.06.77 2.06 1.47 4.14 1.96 6.27.02.07.03.14.04.2.29-.6.45-1.12.54-1.5-.48-1.8-1.08-3.55-1.74-5.28z"/><path d="m158.46 230.95-.11.01c-.01.03-.01.07-.02.1l.12-.12z"/><path d="m143.34 245.25c.09-.14.16-.28.25-.41-.13-.06-.27-.11-.4-.18z"/><path d="m148.2 232.76.31-.05c-.03-.12-.05-.23-.1-.35l-.22.39z"/><path d="m161.15 246.74.05.29c2.94-.21 5.86-.53 8.77-.95l-10.29.61 1.48.06z"/><path d="m173.8 238.38c-.04-.18-.09-.36-.14-.53l.25 7.59h.02l.08-.25c.72-2.33.26-4.63-.21-6.8z"/><path d="m146.39 246.16 12.75.5c.97-.18 1.88-.39 2.72-.61-1.22.1-2.44.19-3.66.26-2.56.13-5.13.16-7.67-.02-2.38-.19-4.81-.5-6.94-1.45-.09.14-.16.28-.25.41l-.15-.59c.13.06.27.12.4.18 1.16-1.83 2.24-3.7 3.19-5.65.51-1.05.98-2.11 1.35-3.23.29-1.01.66-2.09.39-3.25l-.31.05.22-.39c.04.12.07.23.1.35l9.99-1.47.11-.02.02-.1c.24-1.52.33-3.06.19-4.59-.15-1.5-.52-3.12-1.65-4.19 1.1 1.1 1.41 2.71 1.51 4.19.08 1.48-.05 2.98-.32 4.42l.11-.01-.12.12c.01-.03.01-.07.02-.1l-10.23 1.24-.35.04.13.35c.33.93-.02 2.12-.37 3.17-.37 1.07-.85 2.11-1.37 3.13-1.04 2.04-2.23 4.01-3.5 5.91l-.26.38.41.2c.1.05.21.09.31.14l.65-.14 2.61.78z"/><path d="m159.68 246.68-.94.06c.14-.02.26-.05.4-.08l-12.75-.5-2.62-.78-.65.14c2.34 1.09 4.87 1.41 7.34 1.63 2.6.2 5.19.18 7.78.07.99-.05 1.98-.12 2.96-.19l-.05-.29-1.48-.06z"/><path d="m173.52 237.29c-.09.38-.25.9-.54 1.5.41 1.94.72 4.01.22 5.83.1-.02.19-.03.29-.05l-.35.3c.03-.08.04-.17.07-.26-3.76.62-7.54 1.12-11.34 1.44-.85.22-1.75.42-2.72.61l.54.02 10.29-.61c1.23-.18 2.46-.38 3.68-.59l.25-.05-.25-7.59c-.05-.18-.1-.37-.14-.55z"/><path d="m173.49 244.56c-.1.02-.19.03-.29.05-.02.09-.04.17-.07.26l.35-.3z"/><path d="m159.68 246.68-.54-.02c-.14.03-.26.05-.4.08z"/><path d="m146.69 230.63c-.63-2.27-1.24-4.78-2.46-6.81-1.41-2.34-3.36 5.98-3.47 7.28-.05.58-.59 1.15-1.22.93-1.68-.59-4.96-1.62-5.46.97-.48 2.5-.55 5.18-.26 7.72.43 3.74 1.7 5.47 5.77 4.39.95-.25 1.89-.54 2.82-.89 2.99-4.01 5.59-8.89 4.28-13.58z" fill="#fee9da"/><path d="m139.88 230.3c-.25.19-.51.39-.76.58.41.12.68.22.68.22s.02-.3.08-.8z"/><path d="m143.6 245.72c.42-.42.35-1.13-.01-1.48-.2.26-.38.52-.6.78 0 0-.37.15-.94.35.06.12.16.23.28.32l.78-.17c.16.07.32.14.48.2z"/><path d="m142.06 245.37c-1.16.41-3.18 1.01-4.97 1.07l.38.3 4.87-1.05c-.12-.09-.21-.19-.28-.32z"/><path d="m133.29 243.44c-.93-3.93-.7-10.87.51-12.35 1-1.22 3.64-.69 5.06-.3.03-.31.06-.64.1-.98-2-.57-4.13-.74-5.84.6-2 1.56-1.4 7.18-1.31 9.24.07 1.51.14 3.96 1 5.65l-.09-2.31z"/><path d="m142.53 222.35c2.41-3.7 5.63 10.13 5.63 10.13s.25 5.36-4.56 11.76c.36.35.43 1.06.01 1.48.08-.06.16-.13.23-.22 2.82-3.71 5.1-7.99 5.29-12.73.1-2.46-1.37-5.52-2.23-7.74-.46-1.2-2.15-5.46-4.24-4.1-2.44 1.6-3.35 5.79-3.71 8.88.32.09.64.19.95.3.22-1.65.86-5.06 2.63-7.77z"/><path d="m139.12 230.87c.25-.19.51-.39.76-.58.01-.06.02-.12.02-.18-.31-.11-.63-.21-.95-.3-.04.35-.07.67-.1.98.09.03.18.05.26.08z"/><path d="m134.53 246.96c2.79 1.05 6.08.06 8.73-1.01.09-.04.16-.1.23-.15-.38.2-.83.12-1.15-.11l-4.87 1.05-.38-.3c-1.46.04-2.76-.28-3.28-1.42-.2-.43-.37-.97-.51-1.58l-.57-.45.09 2.31c.39.76.94 1.37 1.72 1.67z"/><path d="m143.48 245.8c.04-.02.08-.05.12-.08-.03.03-.08.05-.12.08z"/><path d="m143.12 245.52-.78.17c.31.23.77.31 1.15.11.04-.03.09-.05.12-.08-.16-.07-.32-.13-.48-.2z"/><path d="m142.17 244.53c.08-.11.16-.22.24-.33-.92.35-1.86.64-2.82.89-4.07 1.08-5.34-.65-5.77-4.39-.29-2.54-.22-5.21.26-7.72.49-2.59 3.78-1.56 5.46-.97.63.22 1.18-.35 1.22-.93.1-1.3 2.06-9.62 3.47-7.28 1.22 2.03 1.83 4.55 2.46 6.81 1.31 4.69-1.29 9.57-4.28 13.58.11-.04.22-.07.33-.12.36-.15.65-.05.85.15 4.81-6.4 4.56-11.76 4.56-11.76s-3.22-13.83-5.63-10.13c-1.76 2.7-2.41 6.12-2.63 7.77.05.02.1.03.15.05-.06.05-.12.09-.18.13-.06.5-.08.8-.08.8s-.26-.1-.68-.22c-.1.07-.19.15-.29.22.01-.09.02-.2.03-.29-1.42-.4-4.05-.93-5.06.3-1.21 1.48-1.44 8.42-.51 12.35l3.8 3c1.8-.05 3.82-.66 4.97-1.07-.12-.24-.12-.54.11-.84z"/><path d="m139.12 230.87c-.08-.02-.17-.05-.26-.08-.01.1-.02.2-.03.29.1-.07.19-.15.29-.22z"/><path d="m142.74 244.09c-.11.05-.22.08-.33.12-.08.11-.16.22-.24.33-.23.3-.23.6-.11.84.57-.2.94-.35.94-.35.21-.26.4-.52.6-.78-.2-.2-.49-.3-.85-.15z"/><path d="m139.9 230.11c-.01.06-.02.13-.02.18.06-.05.12-.09.18-.13-.05-.02-.1-.03-.15-.05z"/><path d="m133.8 245.02c.53 1.13 1.83 1.46 3.28 1.42l-3.8-3c .14.61.31 1.15.51 1.58z"/><path d="m148.48 291.58c1.19.05 2.38.06 3.57.07l-3.98-.1c.14.01.28.02.41.02z" fill="none"/><path d="m152.04 291.65c5.55.03 11.11-.36 16.64-.94l-3.79-22.17-1.03-6.31-2.66-15.22c-.99.07-1.97.14-2.96.19-2.59.11-5.18.13-7.78-.07-2.3-.2-4.65-.51-6.85-1.43-.04.03-.08.06-.12.08-.07.05-.13.11-.23.15-2.65 1.07-5.94 2.06-8.73 1.01-.58-.22-1.03-.61-1.38-1.11l.59 2.27 26.74 1.99 5.13 34.56s-6.31 5.04-22.12 6.55c1.52.16 3.06.27 4.59.34l3.98.09z" fill="#cccadb"/><path d="m163.82 291.93c.04-.03.1-.04.14-.07-.22.02-.44.04-.67.05l.52.01z" fill="#cccadb"/><path d="m168.74 291.07.1-.14c-.04.01-.08.02-.12.03z"/><path d="m169.03 290.68c-.07.01-.14.01-.2.02l.04.2.17-.22z"/><path d="m129.34 286.76c-.01-.05-.01-.1-.02-.15-.02-.02-.05-.04-.07-.06l.08.21z"/><path d="m169.45 291.3-.06-.35-4.02-22.49-4.12-22.16 2.61 15.94 4.97 28.46c.07-.01.14-.01.2-.02l-.17.22v.02c-.01 0-.02 0-.03.01l-.1.14-.02-.11c-.38.06-.73.17-1.04.34-.15-.02-.29-.05-.46-.05-.3 0-.57.04-.82.1-.05 0-.1-.02-.15-.02-.32 0-.62.05-.9.11-.54.04-1 .2-1.39.42 1.72-.15 3.43-.33 5.14-.53l.35-.04z"/><path d="m148.48 291.58c-.14-.01-.28-.02-.41-.02l-6.7-.16c.72-.05 1.42-.11 2.11-.18-1.74-.19-3.47-.44-5.18-.79-1.67-.35-3.31-.79-4.89-1.4-1.5-.59-3.1-1.38-4.1-2.42.01.05.01.1.02.15l-.08-.21c.02.02.04.04.07.06-2.09-14.08-1.94-28.42-.99-42.63.49-7.14 1.24-14.25 2.17-21.35.9-7.1 1.95-14.19 3.3-21.22-2.97 14.01-5.01 28.23-6.11 42.52-1.06 14.28-1.34 28.71.69 42.97l.02.14.07.07c1.36 1.47 2.97 2.12 4.61 2.79 1.64.62 3.34 1.06 5.04 1.41 3.41.68 6.87.97 10.33 1.09 4.96.16 9.92-.06 14.85-.48l-11.25-.27c-1.19-.01-2.38-.02-3.57-.07z"/><path d="m166.25 291.33c.06 0 .1.01.15.02.26-.06.53-.1.82-.1.16 0 .31.03.46.05.3-.16.65-.27 1.04-.34l-.04-.24c-5.53.58-11.09.97-16.64.94l11.25.27c.22-.02.44-.03.67-.05.4-.22.85-.38 1.39-.42.28-.07.57-.11.9-.11z"/><path d="m168.87 290.93v-.02l-.02.03c.01 0 .02-.01.03-.01z"/><path d="m168.72 290.96.12-.03.02-.03-.04-.2c-.05.01-.1.01-.15.02l.04.24z"/><path d="m148.06 291.56c-1.53-.07-3.07-.18-4.59-.34-.69.07-1.39.13-2.11.18z"/><path d="m168.68 290.72c.05-.01.1-.01.15-.02l-4.97-28.46 1.03 6.31z"/><path d="m71.29 178.12s-7.72-10.94-5.47-15.12l-3.86 5.79s-2.25-9.65 0-12.54c0 0-.28 1.32-.6 1.21-3.64-1.26-11.35-1.54-12.64 2.96 0 0 2.03-6.12 4.68-7.81.37-.24.76-.43 1.16-.55 3.22-.96-2.71-.07-5.92-2.96 0 0 10.75.39 11.39-4.43 0 0-15.76.99-17.05-3.05 0 0 5.47-1.78 7.4-4.03 0 0-9.01.96-9.97-2.25 0 0 11.26-3.86 11.26-6.11 0 0-3.54-12.87 2.9-27.98 0 0-8.69 4.18-12.54 0 0 0 3.22-2.57 5.15-4.83 0 0-1.61-.97-3.86-4.82 0 0 4.18.32 9.33-1.93 0 0 11.9-26.37 21.55-28.95 0 0-5.79-1.93-7.72-7.4 0 0 3.54.97 7.72 0v-4.18h7.72s18.01-16.4 30.55-16.73c0 0-7.4-4.82 1.61-14.15 0 0-.97 7.4 4.83 9.33l12.54-.32s-3.54-8.04-8.04-7.4c0 0 10.29-5.47 15.44 6.75 0 0 7.72-9.65 15.12-12.22 0 0-5.15 7.4-4.82 13.19 0 0 13.83-9.65 20.58-9.01 0 0-3.54 6.75-3.22 10.29l39.24-4.18-9.01 11.9s11.91-1.29 13.51-4.82c0 0-3.86 9.33-9.97 11.58l12.22 10.93 11.58-1.61s.64 7.08-7.4 9.33c0 0 16.4 7.4 9.97 27.02 0 0 2.57 5.79 6.11 7.24s7.08.81 11.9-2.09c0 0-3.54 8.04-12.54 9.65 0 0 8.04 1.61 12.54-.32 0 0-.64 10.61-18.65 11.9l11.58 10.61s-2.9 3.22-6.75 2.57c0 0 7.72 4.83 13.83 2.57 0 0-5.79 8.04-18.98 5.15 0 0-4.18 24.44-13.83 31.2l-2.9-7.08s-8.05 16.4-12.23 19.94c0 0 2.26-8.04 2.9-12.87 0 0-9.1 13.01-18.06 15.83l-110.26-5.22z" fill="#808285"/><path d="m72.12 174.28s-12.86-14.59-10.29-22.93c0 0-8.04 5.49-13.19 2.27l6.76-2.27-6.76-2.24s8.69-1.27 9.65-6.26l-13.51-4.12s12.87-3.65 13.67-3.55c.8.11-13.67-1.86-13.67-1.86s18.98-8.59 18.98-16.34 4.5-37.96 21.87-35.4 14.15-1.4 14.15-1.4-19.3-10.15-24.12-7.43l18.34-6.92-11.58-2.13s45.67-6.86 47.28-2.21c0 0-28.63-9.26-30.23-17.9l23.8 6.18-11.9-10.2s15.76 1.08 18.33 4.02v-4.02l9.97 4.02s5.47-8.36 8.69-9.63c0 0-3.22 10.96 0 14.49 0 0 10.61-17.45 27.98-8.89 0 0-37.31 6.35-14.79 33.19 0 0-2.9-13.64 9.33-22.99 12.22-9.35 13.83-11.97 13.83-15.81 0 0 1.29 13.36-12.22 24.4-13.52 11.04-2.57 18.05 1.93 28.84 0 0-1.61-36.79 30.56-25.71 0 0-14.15 7.91-14.47 11.27 0 0 6.77-4.75 24.22-.31.39.1 1.6.42 1.19.31-.8-.22-30.23 6.54-31.52 24.73 0 0 24.77-29.99 41.81-7.67 0 0 10.61 10.19 18.33 4.67 0 0-12.22 11.23-19.62 8 0 0 13.29 2.95 18.14 1.53l-1.41.1s-17.69 11.06-28.3 3.9c0 0 3.54 20.88 8.69 21.66l-12.54-2.76s2.36 4.36 6.76 8.19l-6.43-1.79s4.18 19.01 3.54 28.98l-3.22-2.9-14.15 18.65 2.57-10.83-12.22 12.71-1.93-7.02 9.97-12.22s7.72-15.02-2.9-16.2c-10.61-1.17-4.18 10.4-3.86 13.62l-8.36 1.29s-3.56-16.48-2.57-21.9c1.41-7.71 7.72-18.66 5.15-30.56s-10.94-18.13-23.48-22.63c-12.55-4.49-35.06-2.08-42.13 0-7.08 2.08-28.63 8.21-36.34 21.59-9.89 17.14-7.72 25.29-4.5 36.5 3.22 11.22.97 29.37-3.21 31.87z" fill="#a7a9ac"/><g fill="#d1d3d4"><path d="m63.1 101.58c-2.42-.96-12.51-2.31-12.22 19.6 0 0 0-17.12 12.22-19.6z"/><path d="m86.58 80.5s-23.48-.65-23.48 31.52c0 0 6.43-27.34 23.48-31.52z"/><path d="m65.05 125.92s-10.29 12.89-19.93 7.45c0 0 14.15 12.03 19.93-7.45z"/><path d="m115.08 66.72s-.32-4.76-10.29-5.18-21.55 6.92-32.16 5.18c0 0 14.8 1.62 22.52.75 7.72-.88 12.86-4.48 19.94-.75z"/><path d="m138.15 56.6s-6.43-11.24-11.26-13.65c-4.82-2.41-11.9-2.17-15.76-5.19 0 0 9.65 5.67 11.9 7.28s14.79 7.04 15.12 11.56z"/><path d="m170.13 38.84s-41.49 3.85-2.9 39.98c0 0-26.7-28.6 2.9-39.98z"/><path d="m184.56 37.59s-6.76 9.54-10.94 13.64c0 0 10.94-2.42 10.94-13.64z"/><path d="m169.26 59.03s-14.47 12.25 4.82 28.94c0 0-9.65-12.83-4.82-28.94z"/><path d="m201.87 107.07s12.54 2.73 13.51 10.24c0 0 .32-12.87-13.51-10.24z"/><path d="m204.56 24.31s-24.12 7.08-37.95 4.34c0 0 31.84 10.13 37.95-4.34z"/><path d="m167.95 20.91s-18.66 3.57-18.98 8.24c0 0 10.62-6.99 18.98-8.24z"/><path d="m113.07 20.2s-5.47 11.65 8.69 9.38c0 0-8.36-2.02-8.69-9.38z"/><path d="m153.76 82.83s-14.47-6.52-12.54-14.47c0 0-6.11 16.63 12.54 14.47z"/><path d="m115.06 85.57s-20.9 2.23-32.16 16.06c0 0 4.18-16.37 32.16-16.06z"/><path d="m201.87 119.91s4.18 12.29 15.44 8.79-14.15 1.05-15.44-8.79z"/><path d="m180.08 131.13s-9.97 21.55 1.93 31.84c0 0-4.5-18.66-1.93-31.84z"/><path d="m71.16 128.87s-10.29 12.05 6.11 21.52c0 0-6.11-12.31-6.11-21.52z"/><path d="m61.32 152.94s2.9 9.89.65 15.85c0 0 7.72-8.28-.65-15.85z"/><path d="m204.27 52.37s6.85 5.6 19.17.6c0 0-13.38 10.74-19.17-.6z"/><path d="m226.43 104.75s11.26 5.62 15.12 0 .64 13.66-15.12 0z"/><path d="m79.94 59.03s-16.47 10.58-22.26 20.96c0 0 6.82-18.72 22.26-20.96z"/></g><path d="m148.16 63.46c-1.16-3.4-1.61-7.11-.97-10.71.6-3.6 2.69-6.96 5.7-9.08 3-2.15 6.59-3.26 10.18-3.84 3.6-.58 7.26-.62 10.88-.45l3.24.15-3.19.71c-4.01.89-7.98 2.5-11.29 4.94-3.31 2.41-5.87 5.97-6.38 10.06-.56 4.07.63 8.22 2.4 11.95 1.8 3.76 4.16 7.23 6.75 10.53l-.57.37c-.95-2.06-1.66-4.19-2.17-6.38-.5-2.19-.79-4.44-.64-6.7.15-2.24.73-4.5 1.96-6.39 1.21-1.91 3.02-3.36 5.02-4.32-1.98 1.02-3.72 2.52-4.84 4.43-1.14 1.9-1.64 4.11-1.72 6.3-.1 4.41 1.14 8.8 3 12.75l1.18 2.52-1.75-2.15c-2.67-3.27-5.13-6.75-6.98-10.59-1.82-3.81-3.11-8.1-2.55-12.44.51-4.36 3.25-8.22 6.73-10.69 3.49-2.52 7.51-4.13 11.69-5.03l.06.86c-3.58-.2-7.18-.15-10.71.35-3.52.5-7.03 1.53-9.95 3.55-2.94 2-5 5.16-5.72 8.66-.73 3.5-.41 7.2.64 10.64z"/><path d="m166.17 48.02c3.75-.76 7.44-1.87 10.77-3.65 1.66-.88 3.24-1.94 4.51-3.28s2.2-2.97 2.6-4.75l.43-1.92.47 1.88c.39 1.57.48 3.12.38 4.69-.1 1.56-.46 3.11-1.07 4.54-1.19 2.9-3.42 5.26-6.03 6.82 2.41-1.85 4.39-4.27 5.39-7.07.5-1.4.78-2.87.86-4.34.07-1.47-.06-2.99-.42-4.37l.9-.04c-.38 1.99-1.46 3.79-2.85 5.19-1.4 1.41-3.06 2.5-4.8 3.36-3.52 1.66-7.32 2.61-11.14 2.93z"/><path d="m208.63 66.84c-2.68-.03-5.31-.01-7.88.4-2.56.4-5.07 1.17-7.08 2.98.7-1.16 1.8-2.07 3.02-2.7 1.22-.65 2.56-1.02 3.91-1.23 1.35-.2 2.71-.26 4.06-.15 1.35.1 2.69.3 3.97.71z"/><path d="m214.41 73.59c-1.84-.1-3.67 0-5.46.28-1.78.3-3.53.76-5.17 1.48-1.65.7-3.17 1.67-4.55 2.83-1.37 1.17-2.56 2.56-3.64 4.06 1.44-3.41 4.31-6.29 7.8-7.78 1.74-.74 3.6-1.2 5.47-1.33 1.87-.14 3.76-.04 5.55.46z"/><path d="m220.43 80.3c1.31 2.3 2.76 4.51 4.36 6.59 1.61 2.07 3.35 4.04 5.41 5.62 2.01 1.63 4.36 2.84 6.91 3.18 2.55.37 5.18-.31 7.53-1.5-2.15 1.54-4.86 2.48-7.61 2.24-2.76-.21-5.29-1.52-7.43-3.16-2.1-1.71-3.9-3.74-5.42-5.94-1.5-2.21-2.81-4.55-3.76-7.03z"/><path d="m195.6 134.65c-1.31-.24-2.61.24-3.56 1.05-.98.8-1.71 1.87-2.28 3.01-1.13 2.3-1.79 4.83-2.23 7.38-.97 5.11-1.15 10.36-1.49 15.6-.24-2.62-.3-5.25-.23-7.89s.33-5.27.77-7.88c.53-2.59 1.19-5.21 2.53-7.56.68-1.16 1.52-2.26 2.65-3.04 1.12-.75 2.58-1.13 3.84-.67z"/><path d="m61.32 122.23c-1.17 1.73-2.72 3.19-4.31 4.54-1.6 1.35-3.34 2.54-5.13 3.62-3.6 2.13-7.45 3.83-11.47 4.96 3.74-1.84 7.44-3.66 10.97-5.78 1.78-1.04 3.49-2.19 5.17-3.38 1.67-1.21 3.29-2.49 4.76-3.96z"/><path d="m95.97 77.94c-5.95-1.22-11.87-2.61-17.74-4.18l-1.48-.39 1.48-.42c6.18-1.74 12.43-3.22 18.76-4.3 3.16-.56 6.35-.96 9.56-1.18 1.6-.11 3.22-.15 4.83-.04 1.6.11 3.23.29 4.71.93-3.08-.98-6.34-.55-9.49-.31-3.17.32-6.32.89-9.46 1.45-6.27 1.21-12.51 2.65-18.68 4.27v-.81l17.52 4.98z"/><path d="m128.86 66.5c-2.6-3.51-7-5-11.15-5.3-4.26-.3-8.42.68-12.55 1.83-4.16 1.06-8.33 2.16-12.62 2.72-2.15.27-4.33.42-6.52.2s-4.33-.91-6.26-1.93l.41-.68c2.63 1.79 5.68 3.07 8.8 3.91 3.13.86 6.4 1.25 9.66 1.11-3.25.31-6.57.11-9.78-.62-1.6-.38-3.18-.88-4.71-1.5-1.53-.63-3.01-1.33-4.43-2.26l.41-.68c1.89.95 3.9 1.59 5.98 1.77 2.09.2 4.21.03 6.31-.26 4.2-.62 8.38-1.59 12.53-2.63 4.11-1.14 8.47-2.04 12.81-1.58 4.28.38 8.7 2.27 11.1 5.9z"/><path d="m112.8 54.78c-2.91-.89-5.74-2.07-8.39-3.62-1.32-.78-2.6-1.66-3.75-2.71-1.12-1.07-2.15-2.34-2.64-3.92l-.25-.79.81.25c4.76 1.48 9.51 3 14.28 4.43 2.39.71 4.77 1.46 7.17 2.13s4.8 1.36 7.25 1.82c-2.49-.23-4.95-.74-7.39-1.29-2.43-.58-4.86-1.17-7.27-1.85-4.81-1.36-9.59-2.79-14.33-4.4l.56-.54c.4 1.36 1.32 2.55 2.36 3.58 1.05 1.04 2.25 1.95 3.51 2.77 2.54 1.62 5.26 2.99 8.07 4.14z"/><path d="m86.09 82.25c-2.8.6-5.47 1.61-7.96 2.93-2.48 1.33-4.81 2.97-6.75 4.98-2.01 1.96-3.63 4.29-4.91 6.8-1.29 2.51-2.19 5.22-2.87 8 .29-2.85 1.02-5.67 2.21-8.32 1.18-2.65 2.87-5.07 4.9-7.16 2.08-2.04 4.48-3.75 7.11-4.97 2.62-1.21 5.43-2.06 8.29-2.27z"/><path d="m86.72 89.25c-1.8.75-3.36 1.93-4.6 3.35-1.23 1.43-2.16 3.1-2.75 4.89-1.23 3.59-1.25 7.5-1.04 11.39-.96-3.77-1.15-7.88.12-11.7.65-1.89 1.68-3.69 3.12-5.09 1.43-1.4 3.2-2.48 5.14-2.85z"/><path d="m183.06 82.25c-.84 2.74-1.17 5.59-1.09 8.4.02 2.82.62 5.6 1.52 8.26l-.85-.01c.77-1.89 1.63-3.73 2.71-5.46.54-.86 1.1-1.72 1.79-2.48.69-.73 1.47-1.52 2.49-1.71-.95.36-1.6 1.17-2.18 1.96-.56.82-1.08 1.67-1.53 2.56-.89 1.78-1.72 3.61-2.42 5.46l-.42 1.1-.43-1.1c-1.06-2.72-1.5-5.66-1.48-8.57.1-2.9.64-5.82 1.91-8.41z"/><path d="m187.4 104.95c.09-1.35.39-2.68.79-3.97.4-1.3.97-2.55 1.69-3.72.74-1.15 1.67-2.26 2.89-2.98 1.19-.76 2.69-1.02 4.01-.68-1.35.07-2.6.5-3.59 1.29-1 .78-1.81 1.79-2.49 2.88-1.38 2.2-2.35 4.66-3.3 7.18z"/><path d="m218.34 125.71c-.4 2.9 1.25 5.58 3.25 7.44 2.06 1.91 4.74 3.04 7.49 3.35 2.76.33 5.58-.19 8.15-1.26 2.57-1.08 4.97-2.6 7.13-4.41l.37.77c-3.27.54-6.6.45-9.77-.43-1.57-.46-3.11-1.1-4.44-2.07-1.34-.95-2.46-2.17-3.3-3.55.95 1.31 2.13 2.43 3.5 3.25 1.36.82 2.85 1.41 4.4 1.78 1.55.36 3.13.53 4.72.53 1.58.02 3.19-.09 4.72-.37l1.65-.31-1.27 1.08c-2.2 1.86-4.62 3.54-7.35 4.61-2.7 1.08-5.69 1.61-8.61 1.22-2.91-.38-5.69-1.73-7.76-3.79-2.03-2.02-3.48-4.97-2.88-7.83z"/><path d="m140.44 58.83c-2.09-2.44-4.29-4.76-6.66-6.9-2.37-2.12-4.87-4.13-7.7-5.51-1.4-.71-2.87-1.27-4.4-1.5-1.54-.18-3.2-.28-4.78-.58-1.59-.28-3.19-.62-4.7-1.26-1.51-.61-2.89-1.8-3.37-3.36.7 1.48 2.04 2.46 3.54 2.92 1.49.52 3.06.77 4.64.96 1.6.18 3.14.3 4.79.45 1.66.22 3.23.79 4.71 1.5 2.91 1.52 5.48 3.57 7.77 5.84 2.29 2.28 4.37 4.76 6.15 7.44z"/><path d="m127.27 39.72c2.72.84 5.34 1.99 7.82 3.42 1.23.73 2.42 1.57 3.49 2.56 1.04.99 2.11 2.2 2.32 3.83l-.93.01c.31-2.43.71-4.84 1.47-7.17.38-1.16.81-2.32 1.41-3.4.61-1.04 1.39-2.15 2.58-2.53-1.09.56-1.71 1.66-2.19 2.73-.48 1.09-.84 2.23-1.12 3.39-.54 2.33-.99 4.7-1.21 7.08l-.34 3.67-.59-3.65c-.2-1.22-1.03-2.36-2.01-3.3-.98-.96-2.12-1.77-3.28-2.55-2.34-1.55-4.85-2.85-7.41-4.08z"/><path d="m140.44 64.62c-.17 3.13-.35 6.22-.19 9.28.07 1.53.25 3.05.61 4.52.37 1.46.99 2.89 2.15 3.96-1.42-.75-2.32-2.25-2.85-3.74-.56-1.51-.77-3.11-.87-4.69-.07-1.58-.01-3.17.2-4.73.2-1.56.48-3.11.96-4.61z"/><path d="m214.41 135.98c-.92.23-1.88.23-2.82.13-.95-.09-1.88-.35-2.77-.74-1.76-.78-3.31-2.27-3.81-4.11.61.72 1.23 1.37 1.94 1.9s1.46.98 2.27 1.33c1.61.73 3.36 1.14 5.2 1.49z"/><path d="m216.83 96.26c1.6 2.06 3.75 3.56 6.03 4.69 2.3 1.12 4.76 1.88 7.29 2.27 5.06.91 10.26.54 15.42-.05-2.52.69-5.1 1.13-7.71 1.32-2.62.19-5.26.08-7.87-.33-2.59-.48-5.16-1.26-7.47-2.57-2.28-1.3-4.41-3.05-5.69-5.35z"/><path d="m196.22 162.68s-13.83 7.67-13.19 18.31c0 0 10.62-3.2 13.19-18.31z" fill="#d1d3d4"/><path d="m71.29 178.12c-1.37-1.98-2.62-4.05-3.7-6.2-.54-1.08-1.03-2.18-1.42-3.32-.38-1.14-.7-2.32-.69-3.53l.01.01c-.26-.14-.45-.43-.42-.73l.03.01-3.1 4.44-.03.04-.01-.05c-.44-1.86-.77-3.74-.91-5.65-.11-1.9-.14-3.83.3-5.71l.03.05c-2.28-.54-4.64-.92-6.99-.66-1.17.13-2.32.44-3.34 1.02-1 .58-1.88 1.47-2.26 2.57l-.1-.02c.4-2.14 1.55-4.02 2.76-5.78l.06.09c-.53.09-1.06-.08-1.53-.28-.48-.21-.92-.47-1.35-.77l-.08-.05.07-.04c.56-.31 1.11-.45 1.68-.66l1.69-.56 3.4-1.07.02.13c-2.44.11-4.98-.58-6.81-2.25l-.11-.1.15-.03c1.64-.3 3.25-.79 4.77-1.47 1.51-.69 2.96-1.59 4.04-2.85l.07.14c-2.58.1-5.15.06-7.72-.23-1.28-.15-2.56-.36-3.8-.74-1.19-.4-2.56-.93-3.12-2.22l-.04-.08.08-.05c1.46-.88 3.02-1.55 4.66-2.02l.01.22c-1.44-.28-2.85-.71-4.18-1.34-1.29-.64-2.64-1.54-3.13-3.02l-.04-.1.1-.05c1.92-.86 3.82-1.75 5.71-2.66 1.87-.93 3.79-1.84 5.51-3l-.05.15c-.56-2.37-.82-4.79-.94-7.21-.11-2.42-.03-4.85.21-7.27.49-4.83 1.7-9.58 3.6-14.05l.23.22c-2.04.92-4.2 1.58-6.44 1.82-1.12.1-2.26.09-3.37-.18-1.11-.25-2.16-.83-2.95-1.67l-.13-.14.15-.13c1.81-1.49 3.58-3.05 5.12-4.81l.05.28c-.87-.61-1.53-1.42-2.17-2.25s-1.2-1.71-1.73-2.61l-.18-.31.36.01c1.56.06 3.16-.14 4.71-.46 1.55-.33 3.07-.83 4.52-1.46l-.11.13c2.03-5.88 4.64-11.57 7.97-16.84 1.68-2.62 3.57-5.13 5.8-7.32 2.23-2.18 4.85-4.07 7.9-4.96l-.01.46c-1.77-.65-3.36-1.65-4.75-2.91-1.38-1.26-2.49-2.85-3.13-4.63l-.15-.43.46.1c2.47.56 5.11.56 7.59-.01l-.2.26-.01-4.18v-.27h.27l7.72-.01-.19.07c4.44-3.92 9.16-7.5 14.2-10.61 2.52-1.54 5.14-2.96 7.88-4.1 2.74-1.13 5.64-2.02 8.65-2.12l-.16.57c-1.18-.86-2.06-2.02-2.57-3.37s-.54-2.84-.22-4.22c.68-2.78 2.44-5.06 4.33-7.05l.65-.68-.09.95c-.17 1.81.04 3.73.76 5.4.71 1.68 2.11 3.01 3.85 3.56l-.12-.02 12.54-.34-.31.49c-.8-1.71-1.81-3.36-3.04-4.78-1.21-1.38-2.85-2.65-4.63-2.4l-2.28.32 2.06-1c1.51-.73 3.12-1.14 4.77-1.25 1.65-.1 3.34.17 4.86.87 3.09 1.41 5.09 4.34 6.33 7.3l-.65-.09c2.11-2.55 4.4-4.92 6.89-7.08 2.5-2.13 5.22-4.13 8.39-5.28l1.14-.41-.68 1.02c-1.29 1.94-2.42 4.03-3.31 6.2-.87 2.16-1.54 4.46-1.43 6.74l-.65-.32c3.16-2.15 6.42-4.12 9.83-5.84 1.71-.85 3.46-1.64 5.28-2.27 1.82-.6 3.72-1.14 5.75-.99l.65.05-.3.59c-.81 1.59-1.54 3.25-2.14 4.93-.57 1.67-1.12 3.45-1.02 5.11l-.5-.41 39.99-4.6 1.14-.13-.72.9-9.78 12.29-.41-.74c2.4-.29 4.82-.72 7.16-1.34 1.17-.32 2.32-.69 3.4-1.18 1.05-.49 2.15-1.13 2.6-2.04l.82.36c-1.08 2.44-2.41 4.72-4.04 6.82-1.63 2.06-3.61 4.01-6.2 5l .14-.72 12.21 10.95-.33-.1 11.58-1.6.44-.06.02.42c.06 1.17-.13 2.26-.47 3.34-.35 1.06-.89 2.08-1.61 2.95-1.43 1.76-3.5 2.87-5.61 3.45l.06-.73c2.44 1.22 4.55 2.89 6.37 4.87 1.81 1.98 3.24 4.31 4.14 6.85s1.26 5.25 1.14 7.92c-.11 2.68-.67 5.31-1.5 7.84l-.06-.33c1.06 1.31 2.27 2.55 3.58 3.63 1.31 1.11 2.76 1.89 4.4 2.45 1.59.61 3.25 1 4.91.78 1.65-.2 3.22-.91 4.68-1.78l.97-.57-.49.99c-1.25 2.53-3.06 4.7-5.24 6.43s-4.81 2.9-7.55 3.39l.01-.62c2.05.38 4.16.6 6.25.63 2.08.01 4.22-.14 6.11-.92l.48-.2-.06.5c-.27 2.1-1.25 3.95-2.55 5.52-1.31 1.57-2.97 2.8-4.76 3.73-3.61 1.86-7.64 2.62-11.62 2.91l.17-.48 11.57 10.63.2.18-.18.19c-.91.94-1.98 1.67-3.18 2.17-1.19.5-2.53.7-3.82.48l.18-.47c2.04 1.21 4.29 2.15 6.61 2.71 2.31.54 4.78.68 7-.14l.8-.29-.52.66c-1.11 1.4-2.51 2.48-4.01 3.38-1.51.89-3.16 1.52-4.85 1.94-3.41.81-6.98.65-10.36-.1l.26-.18c-1.08 5.71-2.57 11.34-4.61 16.78-1.03 2.71-2.21 5.38-3.68 7.9-1.48 2.49-3.24 4.91-5.65 6.63l-.18.13-.09-.21-2.91-6.55.31.01c-1.78 3.52-3.65 6.99-5.62 10.41-.99 1.7-2.02 3.39-3.11 5.03-1.11 1.63-2.22 3.28-3.72 4.63l-.43.38.19-.55c.31-.92.61-1.86.87-2.8s.52-1.89.63-2.84l.27.1-2.09 2.74-.34.45.08-.56c.21-1.43.61-2.77.95-4.14.34-1.36.74-2.73.98-4.1l.25.1c-2.1 2.92-4.52 5.6-7.21 7.98-2.69 2.36-5.72 4.45-9.17 5.55l-.02.01h-.02zm0 0 110.27 5.1-.04.01c3.4-1.09 6.4-3.18 9.07-5.53 2.66-2.38 5.07-5.06 7.15-7.95l.35-.49-.1.58c-.24 1.41-.63 2.76-.97 4.13-.34 1.36-.73 2.73-.93 4.1l-.26-.1 2.08-2.75.32-.43-.06.53c-.11 1-.37 1.94-.63 2.9-.27.95-.56 1.88-.88 2.81l-.24-.16c1.44-1.3 2.55-2.95 3.65-4.57 1.09-1.64 2.1-3.32 3.09-5.02 1.97-3.41 3.82-6.88 5.6-10.4l.17-.33.15.34 2.93 6.54-.27-.07c2.33-1.67 4.07-4.05 5.53-6.52 1.45-2.49 2.62-5.15 3.64-7.85 2.02-5.42 3.5-11.04 4.56-16.71l.04-.22.22.05c3.34.72 6.84.88 10.16.08 1.65-.41 3.26-1.03 4.72-1.9 1.45-.87 2.83-1.95 3.86-3.25l.28.36c-2.35.87-4.92.72-7.28.17-2.38-.57-4.65-1.51-6.76-2.75l-1.19-.7 1.37.24c2.4.41 4.85-.79 6.52-2.5l.02.37-11.59-10.6-.48-.43.64-.05c3.93-.3 7.9-1.05 11.4-2.87 1.73-.91 3.33-2.1 4.58-3.6 1.23-1.48 2.17-3.31 2.4-5.18l.42.3c-2.04.84-4.23.98-6.35.98-2.14-.03-4.26-.24-6.37-.63l-1.71-.31 1.71-.31c2.65-.48 5.16-1.61 7.26-3.28 2.09-1.67 3.86-3.81 5.03-6.19l.48.42c-1.5.9-3.15 1.65-4.94 1.88-1.8.25-3.6-.19-5.23-.8-1.64-.55-3.27-1.42-4.6-2.56-1.36-1.12-2.58-2.36-3.69-3.73l-.12-.14.06-.18c1.63-4.93 2.11-10.38.34-15.29-.87-2.44-2.25-4.68-4-6.59-1.74-1.9-3.85-3.54-6.13-4.68l-.91-.45.97-.27c2.01-.56 3.92-1.6 5.21-3.21 1.3-1.58 1.97-3.71 1.89-5.71l.45.36-11.58 1.62-.19.03-.15-.13-12.23-10.92-.53-.47.66-.25c2.34-.89 4.24-2.73 5.81-4.73 1.56-2.02 2.88-4.29 3.9-6.62l.81.35c-.69 1.32-1.92 1.93-3.03 2.48-1.15.52-2.34.91-3.54 1.23-2.4.64-4.83 1.08-7.3 1.38l-1.11.14.7-.88 9.76-12.3.43.77-40 4.55-.46.05-.04-.46c-.08-.99.08-1.93.28-2.84.21-.91.49-1.79.8-2.66.63-1.73 1.36-3.4 2.2-5.04l.35.64c-1.78-.14-3.63.35-5.39.93-1.77.61-3.49 1.38-5.18 2.22-3.37 1.69-6.62 3.65-9.74 5.76l-.62.42-.03-.74c-.11-2.49.61-4.87 1.5-7.09.92-2.23 2.06-4.34 3.41-6.35l.46.61c-3.01 1.08-5.68 3.02-8.15 5.12-2.45 2.12-4.74 4.47-6.81 6.96l-.41.49-.24-.58c-1.2-2.88-3.1-5.62-5.94-6.92-2.8-1.32-6.22-.97-8.98.34l-.22-.68c1.06-.15 2.13.17 3 .69.88.53 1.62 1.22 2.27 1.96 1.3 1.5 2.31 3.18 3.15 4.97l.23.48-.54.01-12.54.31h-.06l-.06-.02c-1.9-.6-3.49-2.11-4.24-3.94-.77-1.83-.98-3.8-.8-5.75l.56.27c-1.85 1.94-3.56 4.16-4.18 6.74-.31 1.28-.27 2.63.19 3.86.45 1.21 1.3 2.32 2.32 3.07l.75.54-.91.03c-2.9.09-5.74.95-8.44 2.06-2.71 1.12-5.3 2.51-7.81 4.04-5 3.08-9.73 6.64-14.13 10.52l-.08.07h-.1l-7.72-.01.27-.27v4.18.21l-.2.05c-2.58.58-5.25.58-7.85-.01l.31-.33c1.19 3.42 4.23 5.97 7.56 7.25l.68.26-.69.2c-2.94.86-5.52 2.69-7.71 4.83-2.2 2.15-4.08 4.63-5.75 7.23-3.32 5.22-5.93 10.89-7.96 16.72l-.03.09-.08.04c-1.48.64-3.02 1.14-4.6 1.48-1.58.33-3.19.53-4.82.46l.18-.29c.52.89 1.08 1.76 1.7 2.57s1.3 1.62 2.09 2.19l.18.13-.14.16c-1.57 1.79-3.35 3.34-5.18 4.84l.02-.27c.73.78 1.71 1.32 2.76 1.57 1.05.26 2.16.28 3.25.18 2.18-.22 4.33-.88 6.32-1.78l.4-.18-.17.4c-1.89 4.43-3.1 9.15-3.6 13.95-.25 2.4-.33 4.81-.23 7.22.11 2.4.36 4.82.91 7.16l.02.1-.08.05c-1.77 1.18-3.68 2.08-5.56 3.01-1.9.92-3.8 1.8-5.73 2.65l.07-.15c.44 1.36 1.73 2.25 2.99 2.88 1.3.63 2.7 1.06 4.11 1.33l.48.1-.47.13c-1.61.45-3.17 1.12-4.61 1.97l.04-.13c.49 1.16 1.8 1.71 2.98 2.1 1.22.38 2.49.59 3.76.74 2.55.29 5.13.34 7.69.25l.2-.01-.13.16c-1.11 1.29-2.58 2.2-4.11 2.89-1.54.68-3.16 1.17-4.82 1.47l.04-.13c1.79 1.64 4.3 2.33 6.7 2.23l.51-.02-.49.15-3.4 1.06-1.69.56c-.55.2-1.15.38-1.64.63l-.01-.09c.41.29.86.56 1.32.76s.97.35 1.46.28l.13-.02-.08.11c-1.21 1.74-2.35 3.63-2.75 5.73l-.1-.02c.4-1.14 1.29-2.04 2.31-2.63 1.03-.59 2.2-.91 3.37-1.03 2.36-.26 4.73.12 7.02.67l.04.01-.01.04c-.43 1.85-.4 3.78-.3 5.68.14 1.9.45 3.78.89 5.64l-.04-.01 3.12-4.43.04-.05-.01.06c-.03.29.16.56.4.7h.01v.01c-.01 1.21.3 2.39.68 3.52.4 1.14.88 2.24 1.42 3.32 1.08 2.15 2.33 4.22 3.69 6.2z"/><path d="m204.27 52.37c1.4.94 3.03 1.41 4.64 1.7 1.62.27 3.28.35 4.93.27 3.31-.12 6.59-.78 9.9-1.47-1.54.71-3.15 1.26-4.8 1.68-1.65.43-3.35.67-5.07.75-1.71.05-3.45-.06-5.12-.52-1.65-.45-3.32-1.15-4.48-2.42z"/><path d="m42.02 101.25c1.27-1.52 2.83-2.75 4.23-4.01 1.39-1.22 2.42-2.88 3.8-4.32-.35.93-.78 1.81-1.28 2.67-.48.86-1.12 1.68-1.87 2.37-.75.67-1.54 1.25-2.36 1.78-.82.54-1.64 1.06-2.52 1.52z"/><path d="m66.52 65.49c2.5-2.57 5.69-4.47 9.07-5.72 3.39-1.24 6.94-1.9 10.5-2.21-3.42 1.05-6.87 1.88-10.17 3.11-3.31 1.19-6.42 2.83-9.4 4.81z"/><path d="m109.73 28.21c.2 1.11.66 2.1 1.37 2.87s1.58 1.37 2.54 1.82c1.92.93 4.07 1.34 6.29 1.73-1.11.2-2.26.21-3.39.07-1.14-.12-2.26-.44-3.32-.94-1.04-.52-2.04-1.23-2.7-2.23-.68-.98-.99-2.21-.78-3.32z"/><path d="m120.18 84.53c-12.3 3.28-22.84 4.84-35.38 17.05-16.13 15.71-15.44 29.27-11.9 38.6 3.43 9.02 7.08 22.19 2.58 28.63-4.5 6.43 2.08 18.29 12.22 24.44 10.61 6.44 25.84 14.04 59.25 5.45 22.26-5.72 28.65-10.9 33.02-15.42 3.37-3.49 4.86-10.61 4.86-12.54s8.98-3.41 11.57-14.15c2.25-9.33-6.22-9.53-9.01-5.79l-1.36 10.91-4.1-.3-1.29 4.82s-6.52-13.01-6.11-18.01c.99-12.11 15.11-32.16 5.79-48.24-9.33-16.08-38.57-21.19-60.14-15.44z" fill="#fee9da"/><circle cx="140.9" cy="164.9" fill="url(#b)" r="27.8"/><path clip-path="url(#c)" d="m112.14 165.41c0 13.64-11.06 24.69-24.69 24.69s-24.69-11.05-24.69-24.69 11.06-24.69 24.69-24.69 24.69 11.05 24.69 24.69z" fill="url(#d)"/><path d="m126.66 159.36c0 9.37-7.6 16.96-16.97 16.96s-16.96-7.6-16.96-16.96c0-9.37 7.6-16.97 16.96-16.97 9.37 0 16.97 7.59 16.97 16.97z" fill="url(#e)"/><path d="m116.4 162.2c-.06.2-.19.38-.38.49-.02.02-.03.05-.06.07-.13.31-.41.56-.85.56-.06 0-.11-.02-.16-.03-.1.37-.39.68-.89.68-.06 0-.1-.02-.15-.03-.14.29-.4.51-.82.51-.23 0-.41-.08-.55-.19-.16.16-.37.27-.65.27-.13 0-.22-.05-.33-.09-.15.15-.36.25-.64.25s-.48-.12-.63-.27c-.15.16-.37.27-.66.27-.26 0-.46-.08-.61-.22-.09.03-.17.06-.28.06s-.21-.02-.31-.05c-.08.02-.16.05-.26.05-.06 0-.1-.02-.15-.03-.06.01-.1.03-.17.03-.22 0-.39-.08-.53-.18-.15.19-.36.34-.67.34-.36 0-.6-.17-.75-.4-.11.05-.23.08-.38.08-.3 0-.52-.11-.67-.28-.07.02-.13.04-.21.04-.4 0-.66-.21-.8-.48-.14 0-.23-.07-.34-.11-.05.01-.09.03-.15.03-.48 0-.77-.29-.88-.64-3.16.87-5.69 2.04-7.08 2.97-5.09 3.39-9.68 11.58-9.68 11.58 1.98-1.49 5.18-.97 5.18-.97l.97 5.12c5.47-4.32 14.47-7.05 14.47-7.05s2.65 3.34 3.86 6.23l.66-4.59s5.13 1.21 6.7 3.25l.04-5.22s5.51 3.66 7.74 7.37l-.66-7.7s5.1 4.22 6.79 5.54l.41-4.57 4.13 2.57c-5.46-9.79-12.69-13.97-19.61-15.28z" fill="#808285"/><path d="m116.4 162.2c-.06.2-.19.39-.37.51l-.06.07.01-.01c-.14.41-.6.7-1.05.58l.07-.04c-.09.47-.61.85-1.11.73l.11-.06c-.24.57-1.02.79-1.55.4l.2-.01c-.14.15-.34.25-.54.3-.09.01-.23.03-.31.02-.13-.02-.23-.07-.3-.09l.18-.04c-.19.2-.48.32-.76.32-.15-.01-.24-.01-.42-.08-.14-.06-.25-.14-.36-.24h.29c-.19.21-.48.34-.76.35-.17 0-.23 0-.42-.05-.15-.04-.27-.12-.39-.21l.22.05c-.1.03-.2.07-.38.07-.09 0-.2-.02-.35-.06h.14c-.07.02-.13.05-.25.06-.04 0-.01.01-.11.01l-.05-.01-.11-.02h.09c-.02.01-.1.04-.25.04-.07-.01-.11 0-.21-.02-.19-.04-.32-.11-.45-.19l.38-.05c-.2.28-.57.49-.98.45-.12 0-.3-.03-.51-.14-.17-.1-.3-.23-.41-.38l.38.12c-.12.04-.23.09-.36.09-.13.02-.28.01-.35 0-.27-.04-.53-.17-.71-.36l.34.1c-.06.03-.35.07-.41.05-.09 0-.3-.04-.41-.09-.27-.11-.48-.33-.61-.56l.33.2-.13-.01c-.04-.01-.12-.03-.18-.05l-.17-.07.2.02c.02 0-.08.04-.25.04l-.17-.01c-.18-.03-.34-.08-.47-.16-.28-.16-.48-.44-.58-.72l.49.27c-1.81.55-3.57 1.23-5.24 2.07-1.68.82-3.09 1.99-4.39 3.34-2.58 2.7-4.74 5.87-6.58 9.12l-1.11-.97c.86-.65 1.86-.97 2.82-1.13.99-.15 1.92-.17 2.94-.04l.56.08.11.58.99 5.12-1.35-.5c2.2-1.74 4.63-3.07 7.1-4.25 2.48-1.17 5-2.17 7.64-3.02l.6-.19.38.5c1.54 2.01 2.96 4.03 4.02 6.43l-1.82.23.65-4.59.15-1.06 1.02.26c1.29.33 2.51.74 3.73 1.26 1.2.56 2.44 1.11 3.48 2.36l-1.66.56.07-5.22.02-1.7 1.38.95c1.53 1.06 2.95 2.19 4.31 3.43 1.35 1.25 2.65 2.59 3.66 4.25l-1.58.51-.63-7.7-.16-1.96 1.5 1.26c2.23 1.88 4.45 3.79 6.69 5.61l-1.13.49.47-4.57.11-1.04.86.55 4.09 2.63-.8.76c-2.02-3.71-4.56-7.17-7.79-9.93-3.22-2.76-7.14-4.7-11.32-5.63zm0 0c4.24.65 8.32 2.44 11.74 5.12 3.44 2.66 6.21 6.13 8.36 9.89l1.09 1.9-1.88-1.14-4.17-2.52.97-.48-.34 4.58-.1 1.28-1.03-.79c-2.33-1.8-4.6-3.62-6.88-5.46l1.34-.7.7 7.69.33 3.6-1.91-3.08c-.87-1.4-2.09-2.67-3.38-3.84-1.29-1.16-2.7-2.26-4.13-3.23l1.4-.74-.02 5.22-.01 2.6-1.65-2.04c-.57-.71-1.68-1.31-2.76-1.76-1.09-.46-2.28-.84-3.43-1.12l1.17-.8-.67 4.59-.49 3.35-1.33-3.11c-.89-2.1-2.28-4.15-3.7-6.03l.98.31c-2.51.78-5.02 1.76-7.42 2.86-2.4 1.12-4.75 2.39-6.79 3.98l-1.1.85-.25-1.36-.94-5.13.67.66c-.77-.1-1.65-.12-2.44-.02-.8.11-1.56.36-2.16.78l-2.97 2.1 1.86-3.07c2.02-3.33 4.28-6.46 7.05-9.22 1.38-1.36 2.99-2.62 4.78-3.42 1.76-.84 3.61-1.45 5.48-1.92l.39-.1.11.37c.04.13.11.23.21.3.05.03.11.05.14.07l.16.02c-.06 0-.05.01.08-.02l.1-.02.1.05.16.08s-.02 0-.01.01c.01 0 .1.01.05.01h.23l.1.19c.06.12.14.21.24.25.07.02.06.04.18.05.14.01.05.01.18-.02l.22-.03.12.13c.09.09.18.14.27.17.12.01.16.03.22.01.06 0 .13-.02.19-.04l.26-.06.12.18c.05.08.12.14.19.2.04.02.12.07.28.08.05 0 .18 0 .25-.04.08-.03.15-.09.23-.17l.18-.19.19.14c.07.05.17.1.22.11.02.02.11.02.16.02-.02 0 .02 0 .12-.03l.05-.01.04.01c.03.01.06.02.1.03l.05.01c-.06-.01 0 0-.01-.01.03 0 .1-.01.16-.03l.08-.02.06.03c.05.02.13.04.24.05.02 0 .11-.01.2-.04l.12-.04.11.09c.06.05.14.1.21.13.04.02.21.05.27.04.19 0 .35-.06.48-.19l.15-.14.14.14c.07.07.14.13.22.16.04.03.18.06.27.06.19 0 .37-.06.52-.19l.09-.08.1.04c.1.04.15.07.21.08.1.02.13 0 .22 0 .14-.03.28-.09.39-.19l.11-.1.09.09c.32.29.99.21 1.19-.25l.03-.08.07.02c.41.12.85-.15.96-.56l.02-.06.06.02c.37.12.82-.1.97-.48v-.01l.06-.07c.18-.11.32-.28.39-.48z"/><path d="m129.32 170.08-7.34-6.15s-2.09-1.04-5.68-1.65c-.09.34-.36.62-.79.66.09.53-.2 1.14-.9 1.14-.3 0-.52-.11-.67-.28-3.25 1.5-7.74 1.47-10.84.25-.42-.16-.7-.59-.69-1.01-1.06.28-2.14.6-3.26 1 0 0-5.71 1.37-11.17 9.88l4.32-1.31 1.79 5.21 10.66-5.98 3.41 2.22 1.49-5.67 4.78 4.7 1.69-4.58 5.49 4.95 1.54-3.22 3.76.92-1.62-2.38 4.03 1.29z" fill="#a7a9ac"/><path d="m87.99 173.92s8.45-8.97 14.51-10.99c0 0-8.36.75-14.51 10.99z" fill="#d1d3d4"/><path d="m126.91 171.17s-4.16-4.95-10.93-7.57c0 0 10.29 2.33 10.93 7.57z" fill="#d1d3d4"/><path d="m94.09 177.82s1.03-5.5 6.74-10.63c0 0-6.7.51-6.74 10.63z" fill="#d1d3d4"/><path d="m116.4 162.2c-.06.2-.19.39-.37.51l-.06.07.01-.01c-.14.41-.6.7-1.05.58l.07-.04c-.09.47-.61.85-1.11.73l.11-.06c-.24.57-1.02.79-1.55.4l.2-.01c-.14.15-.34.25-.54.3-.09.01-.23.03-.31.02-.13-.02-.23-.07-.3-.09l.18-.04c-.19.2-.48.32-.76.32-.15-.01-.24-.01-.42-.08-.14-.06-.25-.14-.36-.24h.29c-.19.21-.48.34-.76.35-.17 0-.23 0-.42-.05-.15-.04-.27-.12-.39-.21l.22.05c-.1.03-.2.07-.38.07-.09 0-.2-.02-.35-.06h.14c-.07.02-.13.05-.25.06-.04 0-.01.01-.11.01l-.05-.01-.11-.02h.09c-.02.01-.1.04-.25.04-.07-.01-.11 0-.21-.02-.19-.04-.32-.11-.45-.19l.38-.05c-.2.28-.57.49-.98.45-.12 0-.3-.03-.51-.14-.17-.1-.3-.23-.41-.38l.38.12c-.12.04-.23.09-.36.09-.13.02-.28.01-.35 0-.27-.04-.53-.17-.71-.36l.34.1c-.06.03-.35.07-.41.05-.09 0-.3-.04-.41-.09-.27-.11-.48-.33-.61-.56l.33.2-.13-.01c-.04-.01-.12-.03-.18-.05l-.17-.07.2.02c.02 0-.08.04-.25.04l-.17-.01c-.18-.03-.34-.08-.47-.16-.28-.16-.48-.44-.58-.72l.49.27c-1.81.55-3.57 1.23-5.24 2.07-1.68.82-3.09 1.99-4.39 3.34-2.58 2.7-4.74 5.87-6.58 9.12l-1.11-.97c.86-.65 1.86-.97 2.82-1.13.99-.15 1.92-.17 2.94-.04l.56.08.11.58.99 5.12-1.35-.5c2.2-1.74 4.63-3.07 7.1-4.25 2.48-1.17 5-2.17 7.64-3.02l.6-.19.38.5c1.54 2.01 2.96 4.03 4.02 6.43l-1.82.23.65-4.59.15-1.06 1.02.26c1.29.33 2.51.74 3.73 1.26 1.2.56 2.44 1.11 3.48 2.36l-1.66.56.07-5.22.02-1.7 1.38.95c1.53 1.06 2.95 2.19 4.31 3.43 1.35 1.25 2.65 2.59 3.66 4.25l-1.58.51-.63-7.7-.16-1.96 1.5 1.26c2.23 1.88 4.45 3.79 6.69 5.61l-1.13.49.47-4.57.11-1.04.86.55 4.09 2.63-.8.76c-2.02-3.71-4.56-7.17-7.79-9.93-3.22-2.76-7.14-4.7-11.32-5.63zm0 0c4.24.65 8.32 2.44 11.74 5.12 3.44 2.66 6.21 6.13 8.36 9.89l1.09 1.9-1.88-1.14-4.17-2.52.97-.48-.34 4.58-.1 1.28-1.03-.79c-2.33-1.8-4.6-3.62-6.88-5.46l1.34-.7.7 7.69.33 3.6-1.91-3.08c-.87-1.4-2.09-2.67-3.38-3.84-1.29-1.16-2.7-2.26-4.13-3.23l1.4-.74-.02 5.22-.01 2.6-1.65-2.04c-.57-.71-1.68-1.31-2.76-1.76-1.09-.46-2.28-.84-3.43-1.12l1.17-.8-.67 4.59-.49 3.35-1.33-3.11c-.89-2.1-2.28-4.15-3.7-6.03l.98.31c-2.51.78-5.02 1.76-7.42 2.86-2.4 1.12-4.75 2.39-6.79 3.98l-1.1.85-.25-1.36-.94-5.13.67.66c-.77-.1-1.65-.12-2.44-.02-.8.11-1.56.36-2.16.78l-2.97 2.1 1.86-3.07c2.02-3.33 4.28-6.46 7.05-9.22 1.38-1.36 2.99-2.62 4.78-3.42 1.76-.84 3.61-1.45 5.48-1.92l.39-.1.11.37c.04.13.11.23.21.3.05.03.11.05.14.07l.16.02c-.06 0-.05.01.08-.02l.1-.02.1.05.16.08s-.02 0-.01.01c.01 0 .1.01.05.01h.23l.1.19c.06.12.14.21.24.25.07.02.06.04.18.05.14.01.05.01.18-.02l.22-.03.12.13c.09.09.18.14.27.17.12.01.16.03.22.01.06 0 .13-.02.19-.04l.26-.06.12.18c.05.08.12.14.19.2.04.02.12.07.28.08.05 0 .18 0 .25-.04.08-.03.15-.09.23-.17l.18-.19.19.14c.07.05.17.1.22.11.02.02.11.02.16.02-.02 0 .02 0 .12-.03l.05-.01.04.01c.03.01.06.02.1.03l.05.01c-.06-.01 0 0-.01-.01.03 0 .1-.01.16-.03l.08-.02.06.03c.05.02.13.04.24.05.02 0 .11-.01.2-.04l.12-.04.11.09c.06.05.14.1.21.13.04.02.21.05.27.04.19 0 .35-.06.48-.19l.15-.14.14.14c.07.07.14.13.22.16.04.03.18.06.27.06.19 0 .37-.06.52-.19l.09-.08.1.04c.1.04.15.07.21.08.1.02.13 0 .22 0 .14-.03.28-.09.39-.19l.11-.1.09.09c.32.29.99.21 1.19-.25l.03-.08.07.02c.41.12.85-.15.96-.56l.02-.06.06.02c.37.12.82-.1.97-.48v-.01l.06-.07c.18-.11.32-.28.39-.48z"/><path d="m137.93 151.31c0 6.28-2.53 11.38-5.66 11.38s-5.66-5.09-5.66-11.38c0-6.28 2.53-9.45 5.66-9.45s5.66 3.16 5.66 9.45z" fill="#b06628" stroke="#000" stroke-miterlimit="10" stroke-width=".5"/><path d="m98.64 150.5c0 5.84-2.01 10.57-4.5 10.57-2.48 0-4.5-4.73-4.5-10.57s2.01-8.64 4.5-8.64c2.48 0 4.5 2.81 4.5 8.64z" fill="#b06628" stroke="#000" stroke-miterlimit="10" stroke-width=".5"/><ellipse cx="132.3" cy="151.9" rx="2.2" ry="4.3"/><ellipse cx="94.1" cy="151.5" rx="1.8" ry="3.7"/><path d="m126.63 154.2 11.3-2.9s.17-8.82-5.66-9.45-5.75 10.84-5.64 12.34z"/><path d="m89.65 154.36s-.48-12.1 4.5-12.5c4.97-.41 4.11 7.79 4.3 9.56"/><path d="m86.09 143.64c1.19-1.38 2.8-2.37 4.69-2.82 1.84-.5 4.29-.14 5.9 1.42 1.61 1.52 2.22 3.52 2.4 5.34.19 1.84-.03 3.65-.64 5.36-.6-1.71-1.02-3.36-1.57-4.87-.56-1.5-1.23-2.86-2.16-3.71-.9-.86-2.13-1.25-3.67-1.3-1.52-.02-3.18.25-4.95.58z"/><path d="m122.75 142.24c1.62-1.52 3.72-2.55 6.09-2.84 2.34-.35 5.16.52 6.84 2.49 1.69 1.92 2.39 4.3 2.61 6.52.23 2.25.02 4.46-.6 6.59-.59-2.14-1.01-4.21-1.62-6.15-.61-1.93-1.39-3.74-2.54-5.03-1.14-1.3-2.72-1.99-4.64-2.17-1.91-.16-3.99.13-6.14.58z"/><path d="m131.45 154.2c0 1.2-.95 2.17-2.12 2.17s-2.12-.97-2.12-2.17.95-2.17 2.12-2.17 2.12.97 2.12 2.17z" fill="#fff"/><ellipse cx="91.8" cy="154.8" fill="#fff" rx="1.9" ry="1.9"/><path d="m132.72 152.03s3.15-.56 4.97 4.22l.25-5.86z"/><path d="m93.68 152.03s2.84-1.61 4.65 3.17l.25-5.86z"/><path d="m118.62 158.51c3.95.31 7.82 1.38 11.5 2.86 3.67 1.52 7.16 3.44 10.32 5.82-3.56-1.73-7.06-3.46-10.69-4.93-3.61-1.5-7.32-2.7-11.13-3.75z"/><path d="m89.46 164.61c.87-.97 1.92-1.75 3-2.46 1.08-.72 2.25-1.3 3.44-1.81 2.39-.99 4.93-1.66 7.52-1.78-2.44.86-4.82 1.67-7.14 2.67-2.33.98-4.59 2.08-6.81 3.38z"/><path d="m126.05 116.31s-.07 7.13 2.06 7.98c4.88 1.94 18.77 2.05 20.37 1.41 1.61-.64 3.62-8.1-22.43-9.39z" fill="#414042"/><path d="m126.05 116.31c.27 2.32.47 4.81 1.52 6.75.14.23.28.43.45.56.17.15.28.17.61.28.54.17 1.08.29 1.66.4 1.13.22 2.3.35 3.46.45 2.33.18 4.67.32 7.02.34 2.32.03 4.74.06 6.93-.21.26-.03.53-.11.42-.08.03-.02.13-.13.18-.27.12-.28.1-.67-.04-1.05-.3-.79-1.11-1.53-2-2.12-1.83-1.21-4.07-1.92-6.29-2.57-2.24-.63-4.55-1.07-6.88-1.44-2.32-.43-4.68-.7-7.03-1.04zm0 0c4.75-.15 9.52.09 14.25 1.04 2.36.48 4.72 1.18 6.93 2.48 1.07.68 2.17 1.55 2.78 2.98.28.71.38 1.59.07 2.42-.16.41-.4.81-.84 1.15-.6.39-.95.35-1.26.43-4.95.42-9.63.12-14.41-.58-1.19-.2-2.37-.42-3.55-.73-.58-.15-1.19-.34-1.76-.57-.22-.08-.68-.27-.94-.56-.27-.27-.45-.57-.59-.87-.51-1.21-.63-2.41-.72-3.61-.08-1.2-.06-2.39.04-3.58z"/><path d="m96.06 118.3s4.99 5.49 1.93 6.76c-3.85 1.6-13.19 1.99-17 .8-4.43-1.38 6.06-8.2 15.07-7.56z" fill="#414042"/><path d="m96.06 118.3c.7.64 1.35 1.33 1.92 2.1s1.12 1.57 1.41 2.6c.13.5.17 1.15-.17 1.74-.31.59-1.03.9-1.39 1.05-.95.4-1.87.63-2.81.86-3.77.81-7.6 1.03-11.47.67-.98-.12-1.93-.27-2.97-.61-.25-.09-.63-.25-.92-.51-.32-.25-.61-.74-.64-1.23-.03-.98.41-1.49.75-1.93 1.51-1.62 3.24-2.47 5.03-3.24 3.57-1.46 7.51-2.12 11.25-1.51zm0 0c-3.77.14-7.36 1.29-10.63 2.88-1.58.83-3.25 1.8-4.24 3.02-.23.28-.35.62-.32.61-.04-.1-.02.01.33.13.75.24 1.67.38 2.55.47 3.6.37 7.36.25 10.98-.23.9-.13 1.81-.32 2.64-.55.92-.22 1.16-.56 1.09-1.45-.24-1.69-1.38-3.33-2.41-4.87z"/><path d="m103.69 159.47c-.38.76-.68 1.57-.63 2.27.04.7.46 1.06 1.08 1.34 1.29.5 2.95.56 4.55.57 1.65.02 3.24-.01 4.78-.27.76-.15 1.52-.33 2.12-.72.62-.36 1.09-1.03 1.06-1.91.48.75.24 1.9-.42 2.61-.65.73-1.51 1.16-2.36 1.47-1.7.61-3.5.73-5.2.74-1.72-.07-3.54-.15-5.26-1.19-.41-.28-.84-.65-1.09-1.16-.26-.51-.3-1.1-.19-1.59.26-.98.87-1.67 1.57-2.17z"/><path d="m119.92 83.6c-10.93 2.88-21.18 5.57-30.35 12.53-8.89 6.75-16.76 16.33-19.15 27.44-1.93 8.96 1.8 16.55 4.22 24.95 1.7 5.86 3.27 13.09.56 18.88-1.73 3.68-2.58 6.04-1.57 10.2 3.66 14.96 23.42 23.53 37.25 25.3 11.59 1.49 23.19-.13 34.48-2.81 9.88-2.35 20.27-5.31 28.91-10.83 5.78-3.69 9.41-8.52 11.04-15.27.3-1.23.1-3 1.2-3.78 1.25-.89 2.6-1.61 3.8-2.56 3.59-2.85 5.78-6.41 7.01-10.81 1.46-5.23-2.15-11.73-8.2-8.61-4.46 2.3-3.52 9.12-4.06 13.48.32-.32.65-.64.97-.96-1.37-.1-2.74-.2-4.1-.3-.42-.03-.83.32-.93.71-.43 1.61-.86 3.22-1.29 4.83.59-.08 1.18-.16 1.77-.23-1.7-3.42-3.21-6.95-4.49-10.54-2.09-5.84-1.1-10.48.81-16.23 3.92-11.82 9.56-24.33 4.71-36.75-3.98-10.17-15-15.63-24.86-18.44-12.15-3.47-25.55-3.29-37.73-.17-1.21.31-.69 2.17.51 1.86 20.76-5.3 60.69-2.3 62.08 26.13.59 12.09-6.43 22.88-8.66 34.44-1.33 6.92 2.95 14.65 5.96 20.68.38.77 1.56.54 1.76-.23.41-1.54.82-3.08 1.23-4.62-.24.89-.91.5.74.62l2.49.18c.57.04.9-.48.97-.97.34-2.7.67-5.39 1.01-8.08.11-.84.15-2.24.53-2.68 2.14-2.48 6.17-1.69 7.13 1.35 1.76 5.56-3.7 11.94-7.87 14.8-1.24.85-3.84 1.83-3.94 3.64-.42 8.38-5.79 14.13-12.62 18.11-10.43 6.09-23.29 9.05-35.03 11.2-18.71 3.43-40.24 1.27-54.42-12.75-3.95-3.91-7.7-9.94-6.54-15.71.39-1.93 1.9-3.63 2.56-5.51.86-2.45.77-5.27.63-7.81-.55-10.12-6.52-18.99-6.65-29.1-.16-12.38 8.78-22.92 17.66-30.48 8.96-7.63 19.91-10.31 30.99-13.23 1.2-.32.69-2.18-.51-1.86z"/><path d="m77.27 184.5c5.99 6.7 13.94 10.9 22.24 13.43 8.34 2.48 17.11 3.42 25.83 3.19 8.73-.16 17.44-1.52 25.95-3.7 8.52-2.22 16.8-5.36 24.88-9.22-7.26 5.24-15.44 9.29-24.03 12.11-8.59 2.85-17.62 4.43-26.72 4.67-9.08.16-18.3-1-26.88-4.21-8.51-3.16-16.56-8.55-21.27-16.27z"/></g><g transform="matrix(-1 0 0 1 288 0)"><path d="m65.42 165c0-.02 0-.04 0-.06-.11-.19-.22-.37-.32-.56-.01.25.13.47.32.62z"/><path d="m63.7 166.29 1.36-1.94.01-.01c-.02-.04-.04-.07-.06-.11l-1.08 1.62c-.08.15-.15.3-.23.44z"/><path d="m67.66 172.03c-.04-.07-.07-.15-.11-.23.02.04.03.07.05.11s.04.08.06.11z"/><path d="m55.35 156.68c1.85-.07 3.7.21 5.5.62-1.51-.44-3.53-.71-5.5-.62z"/><path d="m69.13 63.88c-.51.3-1.01.61-1.51.92-.37.32-.73.65-1.08.99-2.2 2.15-4.08 4.63-5.75 7.23-2.93 4.61-5.31 9.56-7.22 14.68.91-1.89 2.44-4.94 4.36-8.34.93-2.25 4.51-10.12 11.16-15.45.01-.01.03-.03.04-.04z"/><path d="m41.01 136.24c.61.86 1.57 1.48 2.52 1.94.42.2.85.38 1.28.54.16-.05 1.65-.47 3.6-1.01-2.29.07-5.91-.08-7.4-1.48z"/><path d="m244.05 128.88c-.01 0-1.27.33-3.08.52-1.08-.01-2.16-.18-3.18-.44.88-.64 1.41-1.22 1.54-1.36l1.57-1.74-9.57-8.77c17.25-2.7 15.9-16.95 15.9-16.95l-3.33 1.13c-.64.22-1.38.39-2.23.51 5.31-2.71 4.99-11.12 4.99-11.12s-1.36.73-3.49 1.87c-2.27 1.22-4.44 1.79-6.4 1.79-3.33 0-5.82-1.79-7.61-5.47l.44-1.53c3.35-13.41-3.41-21.29-8.06-24.95 4.21-2.9 5.11-7.43 4.89-9.89l-.23-2.47-12.03 1.67c-.43-.06-.85-.12-1.27-.19l-8.61-7.7c5.05-3.78 7.5-9.84 7.74-13.23-.4.76-6.75 1.94-9.8 2.68l8.69-11.47-41.73 4.45c.56-2.13 1.7-4.78 2.61-6.54l1.63-3.11s-5.48-1.41-20.94 5.76c1.04-2.79 2.6-5.42 3.4-6.57l4.13-5.96-6.85 2.38c-5.44 1.89-10.86 7.08-13.85 10.3-3.21-5.02-7.45-6.18-10.67-6.18-3.45 0-6.64 1.28-8.73 3.89 1.05 0 6.36 3.27 7.48 4.82l-8.12.21c-3.46-1.48-2.91-6.44-2.88-6.65l.93-7.09-4.97 5.14c-.59.61-1.14 1.24-1.7 1.95 0 0-.9.66-1.2 1.67-1.89 2.92-2.57 5.76-2.03 8.45.15.72.37 1.38.64 1.96-11.19 2.69-23.94 13.4-27.06 16.14h-9.18v4.54c-.49.05-.99.07-1.5.07-1.9 0-3.23-.34-3.24-.34l-4.35-1.19 1.5 4.25c1.08 3.06 3.12 5.18 5.01 6.57-.74.56-1.49 1.21-2.27 1.97-7.12 5.28-10.38 13.25-11.31 15.91-2.32 4.14-4.05 7.71-4.79 9.29-3.25 1.27-5.93 1.41-6.99 1.41-.23 0-.38-.01-.4-.01l-4.49-.35 2.27 3.89c.96 1.65 1.84 2.85 2.57 3.7-1.59 1.54-3.27 2.89-3.3 2.91l-1.98 1.59 1.72 1.86c1.6 1.74 3.86 2.62 6.7 2.62 1.03 0 2.07-.12 3.05-.31-1.63 3.71-1.91 11.39-1.92 15.22 0 3.22.92 6.76 1.21 8.4 0 0-3.29 1.36-11.72 5.43 0 0 1.47 5.11 4.48 5.42l-2.07.48s.39 5.64 9.72 6.69c-.12.02-7.12.34-7.12.34l4.56 4.11c.1.09.2.18.31.26l-4.35 1.46s4.93 2.77 4.99 2.81c-.58.97-1.6 5.22 1.01 7.08 0 0 1.19-2.34 3.18-3.72.46-.32 1.53-.57 1.95-.57 1.51 0 3.21.39 4.4.72-.33 4.01.7 8.82.98 10.04l1.24 5.32 3.23-4.85c1.58 3.98 3.95 8.32 4.53 9.15.34.48 1.13 1.59 2.53 1.59l.72-.03c.42.02.87.03 1.29.04 2.7 6.31 8.49 11.33 9.27 11.87 1.06.87 2.19 1.62 3.27 2.35l.62.42c6.82 4.63 15.24 7.73 24.54 9.06l-10.76 19.11h-15.93c-.34-.13-.98-.38-1.84-.82l-2.84-15.08c2.5-2.97 3.54-6.1 3.08-9.35-.97-6.84-6.93-10.1-8.78-10.86l-3.37-.84s.57 3.14.43 7.78c-.06 2.11-3.8 3.47-4.47-2.55-.27-2.46-.82-3.78-.82-3.78l-3.02 2.09c-4.87 3.83-6.46 12.66-4.24 16.73 1.54 2.81 4.77 4.39 9.12 4.44l2.72 13.67c-.55.5-1 1.04-1.36 1.64-2.73 4.56-.16 13.02 1.62 15.23 1.09 1.36 2.32 2.34 3.67 2.92l2.45 12.35c-2.86 6.21-3.35 10.86-1.25 14.02 4.26 6.4 11.53 3.9 11.53 3.9s-3.4-7.01-1.26-7.77c1.35-.48 3.95 6.49 3.95 6.49s1.99-1.07 2.86-3.41c-.35 3.67-.55 7.35-.59 10.99-.01.83-.01 1.66 0 2.49l.02 1.87 16.58 3.71c.55 23.18 1.82 24.79 2.59 25.77.18.22.37.43.6.64l-.53 1.84c-3.46 2.8-14.67 12-16.86 15.78-.68 1.17-1.24 3.16-.07 6.02 1.66 4.06 6.48 8.66 10.12 9.66.25.07.52.15.81.24 1.41.43 3.34 1.02 5.65 1.02 4 0 7.7-1.82 11.02-5.42.46-.49 1.03-1.07 1.68-1.71 2.43-2.42 5.76-5.73 7.47-9.41.24-.52.37-.79.27-4.71l-.05-1.56c-.06-1.9-.15-4.1-.25-6.19.93 1.97 2.35 3.31 4.17 3.94-.38 6.12.27 8.15.91 9.21.3.49 7.28 12.07 12.76 14.46 1.21.53 3.3.86 5.44.86 7.21 0 12.64-3.36 14.65-9.01l.65-2.56c.17-1.02.26-2.08.26-3.2-.01-4.75-5.57-9.41-12.28-14.58-1.23-.94-2.49-1.91-3.18-2.54l-.56-2.38c.3-.37.54-.69.71-.96.88-1.41 1-3.12.35-4.82-.85-2.19-2.87-4.07-4.72-5-.13-1.04-.25-3.69.09-10.24.68.02 1.38.02 2.1.02 5.12 0 10.89-.36 17.17-1.06l2.5-.28-7.89-45.11 3.79-.58h7.51l.56-1.57c3.34-9.41-12.8-36.77-19.23-47.09-.28.11-.55.22-.83.33l-1.46.44c-.49-.78 2.5 3.94 2.5 3.94 3.35 5.39 6.53 10.88 9.45 16.52 2.04 3.93 3.96 7.92 5.55 12.07.66 1.73 1.26 3.48 1.74 5.28.1-.45.1-.71.1-.71l.04 1.27c.04.18.1.35.14.53.46 2.17.92 4.47.21 6.8l-.08.25h-.02l-1.25-.09-2.68.73c-2.85.42-5.72.73-8.59.94l3.99 21.45 4.02 22.49.06.35-.35.04c-.05.01-.11.01-.16.02l-2.69-.02-2.96.59c-4.8.41-9.62.62-14.45.48l-.95-.14c.01.97-.15 1.46-.13 2.13 0 .08.22.74.14.76-.16 3.37-.23 6.17-.16 8.11.13-.08-.25 2.08.13 2.9.41.89 1.56.45 1.43.51 1.36.76 2.83 2.18 3.42 3.72.42 1.08.36 2.1-.17 2.94-.04.06-.11.15-.16.23.62-.47 1.23-.96 1.84-1.5-.19 1.88-1.1 3.51-2.13 4.99.1.4.19.81.29 1.21.35 1.48 2.97 2.89 4.06 3.72 3.42 2.64 7.39 5.35 9.8 9.01 4.1 6.22-.54 14.54-7.35 16.19-7.53 1.84-11.87-.73-16.49-6.75-2.24-2.92-5.37-6.22-5.57-10.08-.09-1.74-.06-3.49.05-5.24-.04-.01-.07-.01-.11-.02-1.16-.27-2.28-.82-3-1.7.9.11 1.72.06 2.49-.07-1.71-.36-2.98-1.56-3.77-3.6-1.06-2.74-2-7.08-2.8-11.92l-1.18-8.56-.28 1.09.31 8.28 1.43 8.22.03.86c.28.03 1.35.18 1.64.21-.85.7-1.8 1.18-2.79 1.53.07 1.38.14 2.76.2 4.14.1 2.31 1.21 7.17.08 9.32-4.59 8.71-14.68 19.14-25.26 13.9-3.44-1.7-8.17-5.74-8.48-9.9-.28-3.66 3.45-6.34 5.88-8.57 3.5-3.2 7.11-6.27 10.8-9.26.53-.43.92-1.1 1.25-1.89-1.56-1.38-2.71-3.31-2.78-5.32.66.61 1.31 1.12 1.96 1.56-1.18-2.33-1.73-13.51-1.99-24.48.26.09-.03-1.15-.03-1.15 0-.02 0-.05 0-.07l-16.4-3.74-.29-.07v-.3c-.05-8.84.8-17.69 2.54-26.35.86-4.33 1.97-8.62 3.33-12.81.64-1.97 1.33-3.94 2.08-5.87l-15.78.48c-.55.75-1.21 1.46-1.96 2.1.44 2.34.88 4.67 1.32 7.01.31 1.62.61 3.24.92 4.85.22 1.14.64 1.55-.09 1.48 8.66.88 6.41 10.71 3.94 16.16-.19.41-.77.24-.88-.11-.34-1.03-.72-2.1-1.23-3.05-.58-1.77-2.01-1.98-4.3-.64.09.85.25 1.68.49 2.49.47 1.59.99 3.16 1.6 4.71.11.27-.7.36-.99.32-4.06-.5-7.92-2.96-8.82-7.19-.41-1.91-.46-3.9-.03-5.82.32-1.38 2.45-5.02 2.21-6.21-.36-1.83-.73-3.65-1.09-5.48-.4-2.01-.8-4.02-1.2-6.02-5.57-1.56-8.29-9.81-6.47-15 .55-1.56 1.54-2.7 2.79-3.53-1.06-5.31-2.11-10.63-3.17-15.95-2.57.27-5.85-.07-7.77-1.88-5.09-4.78.11-11.35 2.86-15.76.26-.42.97-1 .99-.52.1 1.87.5 2.49 1.03 4.29 1.12 3.82 5.43 3.27 6.19-.63.34-1.73.13-3.08-.16-4.87-.07-.41.31-.75.71-.55 3.17 1.65 6 4.25 7.43 7.55.82 1.9.62 3.9.03 5.82-.34 1.08-2.89 3.6-2.75 4.35 1.01 5.37 2.03 10.75 3.04 16.12h.11c.1 0 .2.02.31.06.05.02.1.03.15.05.01.01.03.01.04.01.97.6 1.89 1.28 2.72 2.03 5.79-.05 11.59-.02 17.38.02 2.16-3.82 4.37-7.62 6.58-11.41 1.84-3.2 3.74-6.36 5.64-9.52-5.09-.64-10.12-1.78-14.95-3.58-5.94-2.21-11.66-5.51-16.18-9.93-4.06-3.48-7.17-7.69-8.54-12.6l-2.53-.12s-.34-.48-.85-1.28c-1.04-1.59-2-3.23-2.85-4.92-.37-.75-.71-1.51-1.02-2.28-.04-.09-.07-.19-.11-.28-.1-.25-.21-.5-.3-.76-.1-.31-.2-.61-.29-.92-.27-.94-.44-1.83-.46-2.64-.21-.14-.36-.38-.36-.64l-1.56 2.22c-.58 1.01-1.15 1.71-1.4 2.01l-.12.17-.03.04-.01-.05c-.44-1.86-.77-3.74-.91-5.65-.04-.65-.05-1.3-.06-1.95-.02-.81.02-1.59.11-2.32 0-.02 0-.03.01-.05.04-.27.08-.52.13-.77.04-.2.06-.39.1-.58-2.27-.54-4.62-.91-6.95-.65-1.17.13-2.32.44-3.34 1.02-1 .58-1.88 1.47-2.26 2.57l-.1-.02s0 0 0-.01c.39-2.1 1.5-3.95 2.69-5.68-.49.04-.97-.1-1.41-.28-.48-.21-.92-.47-1.35-.77l-.08-.05.07-.04c.56-.31 1.11-.45 1.68-.66l1.69-.56 2.87-.9c-.07-.01-.14-.02-.21-.04-2.19-.06-4.4-.76-6.04-2.26l-.11-.1.15-.03c1.64-.3 3.25-.79 4.77-1.47 1.45-.66 2.83-1.52 3.89-2.7-2.5.09-5.01.04-7.5-.23-1.28-.15-2.56-.36-3.8-.74-1.19-.4-2.56-.93-3.12-2.22l-.04-.08.08-.05c1.34-.8 2.76-1.43 4.25-1.88-1.29-.28-2.56-.68-3.76-1.25-1.29-.64-2.64-1.54-3.13-3.02l-.04-.1.1-.05c1.47-.66 2.93-1.35 4.39-2.05 2.25-1.14 4.48-2.32 6.63-3.62.04-.02.07-.04.1-.06-.53-2.3-.78-4.64-.89-6.99-.11-2.42-.03-4.85.21-7.27.48-4.69 1.64-9.32 3.45-13.68-1.93.83-3.96 1.44-6.06 1.67-1.12.1-2.26.09-3.37-.18-1.11-.25-2.16-.83-2.95-1.67l-.13-.14.15-.13c.36-.3.72-.6 1.07-.9.82-.83 1.7-1.58 2.55-2.33.47-.46.93-.94 1.36-1.43-.81-.62-1.43-1.36-2.03-2.14-.63-.83-1.2-1.71-1.73-2.61l-.18-.31.36.01c1.56.06 3.16-.14 4.71-.46 1.52-.33 3.01-.81 4.44-1.43 2.03-5.85 4.63-11.5 7.94-16.75 1.68-2.62 3.57-5.13 5.8-7.32 1.96-1.92 4.24-3.61 6.83-4.6.13-.06.27-.12.4-.18-1.51-.65-2.89-1.54-4.1-2.64-1.38-1.26-2.49-2.85-3.12-4.63l-.15-.43.46.1c2.4.55 4.97.55 7.39.02l-.01-3.96v-.27h.27l7.62-.01c4.41-3.89 9.11-7.45 14.11-10.54 2.52-1.54 5.14-2.96 7.88-4.1 2.32-.95 4.75-1.73 7.27-2.01-.2-.21-.39-.45-.55-.69-.47-.68-.75-1.48-.82-2.27-.49-1.33-.52-2.8-.2-4.16.68-2.78 2.44-5.06 4.33-7.05l.65-.68-.09.95c-.17 1.81.04 3.73.76 5.4.7 1.67 2.09 2.98 3.8 3.54l11.93-.32c-.76-1.54-1.68-3.02-2.8-4.3-1.21-1.38-2.85-2.65-4.63-2.4l-2.28.32 2.06-1c1.51-.73 3.12-1.14 4.77-1.25 1.65-.1 3.34.17 4.86.87 2.89 1.32 4.82 3.98 6.08 6.75 2-2.37 4.15-4.58 6.49-6.62 2.5-2.13 5.22-4.13 8.39-5.28l1.14-.41-.68 1.02c-1.29 1.94-2.42 4.03-3.31 6.2-.77 1.92-1.38 3.96-1.43 5.99 2.96-1.98 6-3.81 9.18-5.42 1.71-.85 3.46-1.64 5.28-2.27 1.82-.6 3.72-1.14 5.75-.99l.65.05-.3.59c-.81 1.59-1.54 3.25-2.14 4.93-.52 1.52-1.01 3.12-1.02 4.65l39.5-4.54 1.14-.13-.72.9-9.07 11.39c2.03-.28 4.06-.66 6.04-1.19 1.17-.32 2.32-.69 3.4-1.18 1.05-.49 2.15-1.13 2.6-2.04l.82.36c-1.08 2.44-2.41 4.72-4.04 6.82-1.5 1.89-3.29 3.68-5.56 4.72l11.57 10.38 11.39-1.57.44-.06.02.42c.06 1.17-.13 2.26-.47 3.34-.35 1.07-.89 2.08-1.61 2.95-1.24 1.52-2.95 2.55-4.76 3.18 2.1 1.17 3.95 2.67 5.56 4.42 1.81 1.98 3.24 4.31 4.14 6.85s1.26 5.25 1.14 7.92c-.11 2.61-.65 5.18-1.44 7.65 1.03 1.26 2.2 2.46 3.46 3.49 1.32 1.11 2.76 1.89 4.4 2.45 1.59.61 3.25 1 4.91.78 1.65-.2 3.22-.91 4.68-1.78l.96-.57-.49.99c-1.25 2.53-3.06 4.7-5.24 6.43-1.68 1.33-3.61 2.32-5.66 2.94 3.4.21 6.83-.02 10.26-.38.07-.03.14-.05.21-.08l.48-.2-.03.21.57-.06c-.19.05-.39.1-.58.14l-.03.21c-.27 2.1-1.25 3.95-2.55 5.52-1.31 1.57-2.97 2.8-4.76 3.73-3.42 1.76-7.22 2.53-10.99 2.85l11.1 10.2.2.18-.18.19c-.91.94-1.98 1.67-3.17 2.17-.83.35-1.74.54-2.65.55 1.56.83 3.22 1.5 4.93 1.97.98.14 1.97.21 2.96.22 1.58.02 3.19-.09 4.72-.37l1.65-.31-1.27 1.08c-.32.27-.65.54-.99.81-.93.93-1.99 1.7-3.11 2.37-1.23.73-2.56 1.27-3.93 1.68-2.52.91-5.24 1.32-7.92.96-.97-.13-1.92-.37-2.83-.7-.1-.02-.21-.04-.31-.06-1.07 5.64-2.56 11.19-4.57 16.56-1.03 2.71-2.21 5.38-3.68 7.9-1.48 2.49-3.24 4.91-5.65 6.63l-.18.13-.09-.21-2.77-6.22c-1.73 3.41-3.54 6.77-5.46 10.08-.99 1.7-2.02 3.39-3.11 5.03-1.11 1.63-2.22 3.28-3.72 4.63l-.43.38.19-.55c.31-.92.61-1.86.87-2.8.21-.75.42-1.52.54-2.28l-1.74 2.29-.34.45.08-.56c.21-1.43.61-2.77.94-4.14.29-1.17.62-2.35.86-3.53-2.02 2.73-4.31 5.25-6.85 7.51-2.69 2.36-5.72 4.45-9.17 5.55l-.02.01h-.02l-.73-.04c-1.59 2.01-3.52 3.77-5.82 5.33.39-.18.78-.36 1.16-.54-5.69 4.11-12.9 7.86-19.47 10.48 10.6-3.07 19.65-8.64 24.2-13.01l.97.05.4-.13c4.21-1.33 8.34-4.57 11.73-7.9l-.27 2.38s2.55-1.15 2.55-1.15l-2.55 6.45s9.31-5.31 15.04-19.22l2.07 5.05 2.42-1.69c8.59-6.01 13.01-23.92 14.35-30.4 1.24.17 2.46.23 3.65.26 13.45.33 19.19-12.08 19.19-12.08zm-155.94 124.11-2.17-11.51c.2-.18.4-.35.59-.53h11.97c-.37 1.22-.82 2.74-1.29 4.5-1.3 4.28-2.37 8.7-3.21 13.19-.2-.63-.46-1.23-.79-1.79-1.29-2.19-3.37-3.34-5.09-3.86z" stroke="#000" stroke-miterlimit="10" stroke-width=".3"/><path d="m194.84 173.4c-1.97 2.17-4.4 4.58-7.03 6.53.97-.7 1.9-1.45 2.79-2.23 1.5-1.34 2.91-2.79 4.24-4.3z"/><path d="m209.04 160.81.04.08.63 1.41-.63-1.54z"/><path d="m196.86 180.45c1.23-1.23 2.24-2.69 3.23-4.14 1.09-1.64 2.1-3.32 3.09-5.02 1.8-3.11 3.49-6.29 5.12-9.49l-.09.12c-2.04 4.02-7.82 15.07-11.26 18.26-.03.09-.06.19-.09.28z"/><path d="m50 154.33c.46.2.97.35 1.46.28l.06-.01c.01-.01.01-.02.02-.03-.82-.09-1.62-.31-2.37-.69.27.17.55.32.83.45z"/><path d="m64.13 190.88c.1-.16.2-.32.3-.48 0-.05-.01-.09-.01-.14-.02-.38-.14.02-.28.61z"/><path d="m43.59 141.42c.75-.27 2.11-.8 3.46-1.49-1.2.38-2.36.88-3.46 1.49z"/><path d="m163.12 257.76-1.76-10.75c-.05 0-.11.01-.16.01z"/><path d="m48.89 159.96c0-.01 0-.01.01-.02.28-.78.92-2.42 1.8-4-.79 1.25-1.46 2.58-1.81 4.01z"/><path d="m50.85 150.45c.66.3 1.36.51 2.07.65-.65-.15-1.37-.35-2.07-.65z"/><path d="m52.02 152.48-1.69.56c-.33.12-.67.24-1 .36l3.21-1.08-.51.16z"/><path d="m72.69 190.32c0-.01 0-.01 0-.02-.03-.02-.07-.04-.1-.06.03.03.06.05.1.08z"/><path d="m50.99 157.78c.5-.28 1.03-.5 1.58-.67-1.52.43-2.8 1.21-3.48 2.46.47-.75 1.15-1.35 1.91-1.79z"/></g></svg>